<?xml version="1.0" standalone="no"?>
  <!DOCTYPE svg PUBLIC "-//W3C//DTD SVG 1.1//EN" "http://www.w3.org/Graphics/SVG/1.1/DTD/svg11.dtd" >
  <svg>
  <metadata>
  Created by font-carrier
  </metadata>
  <defs>
  <font id="Montserrat-LightItalic" horiz-adv-x="1596" vert-adv-y="1596" >
    <font-face
      
      font-family="Montserrat-LightItalic"
      
      font-weight="400"
      
      font-stretch="normal"
      
      units-per-em="1000"
      
      ascent="968"
      
      descent="-251"
      
    />
      <missing-glyph />

      

      
      <glyph glyph-name="uni21" unicode="&#x21;" d="M185 700L243 700L133 201L95 201L185 700M80-4Q64-4 52 7.50Q40 19 40 35Q40 53 52.50 65.50Q65 78 82 78Q99 78 111 66.50Q123 55 123 39Q123 21 110.50 8.50Q98-4 80-4Z"  horiz-adv-x="252" vert-adv-y="1000"  />

      
      <glyph glyph-name="uni22" unicode="&#x22;" d="M162 700L208 700L153 442L114 442L162 700M324 700L370 700L315 442L276 442L324 700Z"  horiz-adv-x="357" vert-adv-y="1000"  />

      
      <glyph glyph-name="uni23" unicode="&#x23;" d="M550 462L478 238L623 238L615 198L465 198L401 0L359 0L423 198L205 198L141 0L100 0L163 198L20 198L28 238L176 238L248 462L104 462L112 502L261 502L324 700L366 700L302 502L520 502L584 700L626 700L562 502L707 502L699 462L550 462M508 462L290 462L218 238L436 238L508 462Z"  horiz-adv-x="690" vert-adv-y="1000"  />

      
      <glyph glyph-name="uni24" unicode="&#x24;" d="M579 602Q507 655 405 660L347 368Q410 349 449 332Q488 315 515 283.50Q542 252 542 201Q542 105 467 51Q392-3 272-5L249-120L213-120L236-4Q167 1 107 26.50Q47 52 18 88L45 127Q74 93 129 69.50Q184 46 245 41L303 331Q246 348 208.50 366Q171 384 146 416Q121 448 121 498Q121 592 192 646.50Q263 701 378 705L401 820L437 820L414 704Q468 702 518 686Q568 670 603 644L579 602M172 503Q172 453 208 426Q244 399 313 378L369 659Q279 654 225.50 613Q172 572 172 503M491 195Q491 231 470.50 254.50Q450 278 418.50 292Q387 306 337 321L281 40Q377 42 434 83Q491 124 491 195Z"  horiz-adv-x="609" vert-adv-y="1000"  />

      
      <glyph glyph-name="uni25" unicode="&#x25;" d="M224 327Q163 327 127.50 366Q92 405 92 474Q92 534 114.50 586.50Q137 639 179 671Q221 703 276 703Q337 703 372.50 664Q408 625 408 556Q408 496 385.50 443.50Q363 391 321 359Q279 327 224 327M710 700L757 700L142 0L95 0L710 700M226 360Q270 360 303 388.50Q336 417 353 461.50Q370 506 370 553Q370 608 344.50 639Q319 670 274 670Q230 670 197 641.50Q164 613 147 568.50Q130 524 130 477Q130 422 155.50 391Q181 360 226 360M576-4Q515-4 479.50 35Q444 74 444 143Q444 203 467 255.50Q490 308 532 340Q574 372 629 372Q690 372 725 333Q760 294 760 225Q760 165 737.50 112.50Q715 60 673 28Q631-4 576-4M579 29Q623 29 656 57.50Q689 86 706 130.50Q723 175 723 222Q723 277 697.50 308Q672 339 626 339Q582 339 549 310.50Q516 282 499 237.50Q482 193 482 146Q482 91 507.50 60Q533 29 579 29Z"  horiz-adv-x="817" vert-adv-y="1000"  />

      
      <glyph glyph-name="uni26" unicode="&#x26;" d="M608 294Q569 194 514 129L596 21L561-10L482 94Q380-5 235-5Q142-5 86.50 37.50Q31 80 31 151Q31 219 83 274.50Q135 330 257 391L256 392Q226 432 211 467Q196 502 196 537Q196 614 247 659Q298 704 381 704Q446 704 485 672Q524 640 524 587Q524 545 504 511.50Q484 478 441.50 447.50Q399 417 324 380L488 163Q535 223 568 307L608 294M243 542Q243 513 256.50 482Q270 451 299 413L300 412Q371 446 409 472Q447 498 463.50 524Q480 550 480 584Q480 619 453 642Q426 665 379 665Q317 665 280 631.50Q243 598 243 542M238 37Q365 37 457 128L281 359Q205 321 161.50 289.50Q118 258 99.50 226.50Q81 195 81 157Q81 103 123 70Q165 37 238 37Z"  horiz-adv-x="655" vert-adv-y="1000"  />

      
      <glyph glyph-name="uni27" unicode="&#x27;" d="M162 700L208 700L153 442L114 442L162 700Z"  horiz-adv-x="194" vert-adv-y="1000"  />

      
      <glyph glyph-name="uni28" unicode="&#x28;" d="M137-194Q117-138 105.50-69.50Q94-1 94 64Q94 248 155 432.50Q216 617 319 742L369 742Q266 614 203.50 427.50Q141 241 141 62Q141-64 182-194L137-194Z"  horiz-adv-x="321" vert-adv-y="1000"  />

      
      <glyph glyph-name="uni29" unicode="&#x29;" d="M13-194Q116-66 178.50 120.50Q241 307 241 486Q241 612 200 742L245 742Q265 686 276.50 617.50Q288 549 288 484Q288 300 227 115.50Q166-69 63-194L13-194Z"  horiz-adv-x="321" vert-adv-y="1000"  />

      
      <glyph glyph-name="uni2a" unicode="&#x2a;" d="M285 564L396 493L375 462L259 538L230 389L195 389L225 534L84 461L70 492L215 566L101 639L122 670L237 594L265 742L300 742L271 595L414 670L428 637L285 564Z"  horiz-adv-x="375" vert-adv-y="1000"  />

      
      <glyph glyph-name="uni2b" unicode="&#x2b;" d="M511 328L320 328L283 143L238 143L275 328L85 328L94 371L284 371L321 557L366 557L329 371L519 371L511 328Z"  horiz-adv-x="569" vert-adv-y="1000"  />

      
      <glyph glyph-name="uni2c" unicode="&#x2c;" d="M57 81Q74 81 86 69Q98 57 98 40Q98 31 94.50 22Q91 13 87.50 6.50Q84 0 83-3L13-143L-23-143L38-1Q27 4 20 14.50Q13 25 13 37Q13 56 26 68.50Q39 81 57 81Z"  horiz-adv-x="200" vert-adv-y="1000"  />

      
      <glyph glyph-name="uni2d" unicode="&#x2d;" d="M68 291L325 291L316 246L59 246L68 291Z"  horiz-adv-x="381" vert-adv-y="1000"  />

      
      <glyph glyph-name="uni2e" unicode="&#x2e;" d="M54-4Q37-4 25 8Q13 20 13 37Q13 56 26 68.50Q39 81 57 81Q74 81 86 69Q98 57 98 40Q98 22 85 9Q72-4 54-4Z"  horiz-adv-x="200" vert-adv-y="1000"  />

      
      <glyph glyph-name="uni2f" unicode="&#x2f;" d="M420 842L469 842L-46-100L-96-100L420 842Z"  horiz-adv-x="320" vert-adv-y="1000"  />

      
      <glyph glyph-name="uni30" unicode="&#x30;" d="M283-5Q179-5 120.50 61Q62 127 62 245Q62 364 105 469.50Q148 575 227 640Q306 705 410 705Q514 705 572 639Q630 573 630 455Q630 336 587.50 230.50Q545 125 466 60Q387-5 283-5M288 42Q376 42 442.50 103Q509 164 544.50 259Q580 354 580 454Q580 552 534 605Q488 658 405 658Q316 658 250 597Q184 536 148.50 441Q113 346 113 246Q113 148 158.50 95Q204 42 288 42Z"  horiz-adv-x="658" vert-adv-y="1000"  />

      
      <glyph glyph-name="uni31" unicode="&#x31;" d="M319 700L179 0L128 0L259 654L88 654L97 700L319 700Z"  horiz-adv-x="353" vert-adv-y="1000"  />

      
      <glyph glyph-name="uni32" unicode="&#x32;" d="M78 46L479 46L470 0L-12 0L-4 36L354 329Q432 393 461.50 439Q491 485 491 537Q491 594 450.50 626.50Q410 659 328 659Q269 659 215 637.50Q161 616 125 577L89 608Q132 654 196.50 679.50Q261 705 334 705Q435 705 488.50 661Q542 617 542 543Q542 481 508 424.50Q474 368 389 299L78 46Z"  horiz-adv-x="563" vert-adv-y="1000"  />

      
      <glyph glyph-name="uni33" unicode="&#x33;" d="M559 664L296 394Q393 390 444 344.50Q495 299 495 220Q495 154 460.50 103Q426 52 362.50 23.50Q299-5 217-5Q137-5 74.50 20.50Q12 46-19 90L12 128Q38 89 92.50 65.50Q147 42 220 42Q323 42 383 89.50Q443 137 443 218Q443 352 261 352L223 352L231 389L489 654L118 654L127 700L565 700L559 664Z"  horiz-adv-x="558" vert-adv-y="1000"  />

      
      <glyph glyph-name="uni34" unicode="&#x34;" d="M626 194L479 194L440 0L389 0L428 194L30 194L37 231L506 700L567 700L107 239L438 239L473 410L522 410L488 239L635 239L626 194Z"  horiz-adv-x="654" vert-adv-y="1000"  />

      
      <glyph glyph-name="uni35" unicode="&#x35;" d="M234 654L157 407L257 407Q385 407 447 359.50Q509 312 509 226Q509 156 475 104Q441 52 378 23.50Q315-5 231-5Q151-5 88.50 20.50Q26 46-5 90L26 128Q52 89 107 65.50Q162 42 235 42Q340 42 399 89.50Q458 137 458 221Q458 289 408 325Q358 361 248 361L93 361L197 700L568 700L559 654L234 654Z"  horiz-adv-x="558" vert-adv-y="1000"  />

      
      <glyph glyph-name="uni36" unicode="&#x36;" d="M437 660Q329 660 257.50 606Q186 552 152 468Q118 384 115 290Q146 353 206 383.50Q266 414 337 414Q401 414 451.50 391Q502 368 531 324Q560 280 560 219Q560 151 528.50 100Q497 49 441 22Q385-5 313-5Q199-5 130.50 64.50Q62 134 62 266Q62 375 100.50 475Q139 575 224 640Q309 705 440 705Q541 705 602 668L576 626Q526 660 437 660M328 370Q268 370 221.50 347Q175 324 149.50 284Q124 244 124 196Q124 156 145.50 120Q167 84 209.50 61.50Q252 39 312 39Q401 39 455 86.50Q509 134 509 215Q509 288 459 329Q409 370 328 370Z"  horiz-adv-x="602" vert-adv-y="1000"  />

      
      <glyph glyph-name="uni37" unicode="&#x37;" d="M624 700L617 664L185 0L127 0L553 654L162 654L135 520L85 520L121 700L624 700Z"  horiz-adv-x="581" vert-adv-y="1000"  />

      
      <glyph glyph-name="uni38" unicode="&#x38;" d="M450 360Q507 339 537 299.50Q567 260 567 205Q567 141 532.50 93.50Q498 46 435 20.50Q372-5 288-5Q170-5 103.50 43.50Q37 92 37 177Q37 254 86 305Q135 356 225 373Q178 393 153.50 428Q129 463 129 510Q129 569 160 613.50Q191 658 248 681.50Q305 705 381 705Q485 705 547.50 660Q610 615 610 538Q610 470 568 423.50Q526 377 450 360M181 513Q181 454 228 420Q275 386 360 386Q452 386 505.50 425.50Q559 465 559 532Q559 592 510 626.50Q461 661 378 661Q288 661 234.50 621Q181 581 181 513M290 39Q395 39 455.50 83.50Q516 128 516 204Q516 269 462 306.50Q408 344 312 344Q208 344 148 299.50Q88 255 88 180Q88 114 141.50 76.50Q195 39 290 39Z"  horiz-adv-x="632" vert-adv-y="1000"  />

      
      <glyph glyph-name="uni39" unicode="&#x39;" d="M325 705Q439 705 507 635.50Q575 566 575 434Q575 325 536.50 225Q498 125 413 60Q328-5 197-5Q96-5 36 32L61 74Q113 40 201 40Q309 40 380 94Q451 148 485 232Q519 316 522 410Q491 347 431.50 316.50Q372 286 300 286Q236 286 185.50 309Q135 332 106 376Q77 420 77 481Q77 549 108.50 600Q140 651 196.50 678Q253 705 325 705M309 330Q369 330 415.50 353Q462 376 487.50 416Q513 456 513 504Q513 544 491.50 580Q470 616 427.50 638.50Q385 661 325 661Q236 661 182.50 613.50Q129 566 129 485Q129 412 178.50 371Q228 330 309 330Z"  horiz-adv-x="602" vert-adv-y="1000"  />

      
      <glyph glyph-name="uni3a" unicode="&#x3a;" d="M143 441Q126 441 114 453Q102 465 102 482Q102 501 115 513.50Q128 526 146 526Q163 526 175 514Q187 502 187 485Q187 467 174 454Q161 441 143 441M54-4Q37-4 25 8Q13 20 13 37Q13 56 26 68.50Q39 81 57 81Q74 81 86 69Q98 57 98 40Q98 22 85 9Q72-4 54-4Z"  horiz-adv-x="200" vert-adv-y="1000"  />

      
      <glyph glyph-name="uni3b" unicode="&#x3b;" d="M143 441Q126 441 114 453Q102 465 102 482Q102 501 115 513.50Q128 526 146 526Q163 526 175 514Q187 502 187 485Q187 467 174 454Q161 441 143 441M57 81Q74 81 86 69Q98 57 98 40Q98 31 94.50 22Q91 13 87.50 6.50Q84 0 83-3L13-143L-23-143L38-1Q27 4 20 14.50Q13 25 13 37Q13 56 26 68.50Q39 81 57 81Z"  horiz-adv-x="200" vert-adv-y="1000"  />

      
      <glyph glyph-name="uni3c" unicode="&#x3c;" d="M543 499L137 347L483 196L475 153L84 326L94 374L553 547L543 499Z"  horiz-adv-x="569" vert-adv-y="1000"  />

      
      <glyph glyph-name="uni3d" unicode="&#x3d;" d="M117 484L542 484L533 441L109 441L117 484M72 258L497 258L488 216L63 216L72 258Z"  horiz-adv-x="569" vert-adv-y="1000"  />

      
      <glyph glyph-name="uni3e" unicode="&#x3e;" d="M520 374L510 326L52 153L62 201L467 352L121 504L130 547L520 374Z"  horiz-adv-x="569" vert-adv-y="1000"  />

      
      <glyph glyph-name="uni3f" unicode="&#x3f;" d="M229 201Q237 244 257.50 276.50Q278 309 303.50 331Q329 353 368 381Q408 409 430.50 429.50Q453 450 468.50 479Q484 508 484 547Q484 601 444 630.50Q404 660 331 660Q261 660 208.50 639.50Q156 619 116 577L83 609Q174 705 337 705Q430 705 482.50 665Q535 625 535 554Q535 505 517.50 469.50Q500 434 475 411Q450 388 407 357Q352 317 322 284.50Q292 252 281 201L229 201M221-4Q205-4 193 7.50Q181 19 181 35Q181 53 193.50 65.50Q206 78 223 78Q240 78 252 66.50Q264 55 264 39Q264 21 251.50 8.50Q239-4 221-4Z"  horiz-adv-x="562" vert-adv-y="1000"  />

      
      <glyph glyph-name="uni40" unicode="&#x40;" d="M583 705Q711 705 802 660Q893 615 940 533.50Q987 452 987 343Q987 253 958.50 173Q930 93 881.50 44.50Q833-4 776-4Q734-4 709 18Q684 40 684 78Q684 83 686 97Q648 49 593 22.50Q538-4 470-4Q371-4 311.50 53.50Q252 111 252 207Q252 293 289 363.50Q326 434 391.50 474.50Q457 515 540 515Q620 515 671.50 480Q723 445 742 381L768 511L814 511L735 115Q732 100 732 89Q732 37 787 37Q830 37 867 81Q904 125 926 196Q948 267 948 343Q948 441 906 514Q864 587 781.50 627Q699 667 579 667Q433 667 320.50 600.50Q208 534 146.50 420.50Q85 307 85 171Q85 72 126.50-2.50Q168-77 248-118.50Q328-160 441-160Q496-160 546.50-149Q597-138 636-116L645-154Q603-175 548-187Q493-199 436-199Q315-199 226.50-153Q138-107 91-23.50Q44 60 44 169Q44 314 110.50 437Q177 560 299.50 632.50Q422 705 583 705M480 38Q549 38 604 72Q659 106 690.50 166Q722 226 722 301Q722 383 673.50 428Q625 473 539 473Q470 473 415.50 439Q361 405 330 345Q299 285 299 210Q299 128 346.50 83Q394 38 480 38Z"  horiz-adv-x="1033" vert-adv-y="1000"  />

      
      <glyph glyph-name="uni41" unicode="&#x41;" d="M546 197L139 197L10 0L-47 0L415 700L466 700L648 0L596 0L546 197M535 240L432 646L167 240L535 240Z"  horiz-adv-x="705" vert-adv-y="1000"  />

      
      <glyph glyph-name="uni42" unicode="&#x42;" d="M556 360Q616 347 648 310.50Q680 274 680 216Q680 112 602 56Q524 0 385 0L70 0L210 700L500 700Q599 700 654.50 662.50Q710 625 710 554Q710 479 668 429.50Q626 380 556 360M196 377L435 377Q535 377 596 420.50Q657 464 657 546Q657 601 614 628.50Q571 656 491 656L252 656L196 377M390 44Q505 44 567 88Q629 132 629 214Q629 277 585 305Q541 333 452 333L188 333L130 44L390 44Z"  horiz-adv-x="752" vert-adv-y="1000"  />

      
      <glyph glyph-name="uni43" unicode="&#x43;" d="M389-5Q287-5 214.50 31Q142 67 104.50 132Q67 197 67 283Q67 397 119 494Q171 591 267 648Q363 705 491 705Q572 705 635.50 680Q699 655 734 609L698 576Q628 658 487 658Q377 658 293 607.50Q209 557 163.50 472Q118 387 118 285Q118 173 189 107.50Q260 42 393 42Q537 42 624 126L655 91Q609 45 539.50 20Q470-5 389-5Z"  horiz-adv-x="716" vert-adv-y="1000"  />

      
      <glyph glyph-name="uni44" unicode="&#x44;" d="M210 700L470 700Q573 700 646.50 665Q720 630 758 566Q796 502 796 417Q796 296 742 201Q688 106 589 53Q490 0 360 0L70 0L210 700M363 46Q478 46 564.50 93Q651 140 697.50 224Q744 308 744 415Q744 526 673 590Q602 654 464 654L252 654L130 46L363 46Z"  horiz-adv-x="826" vert-adv-y="1000"  />

      
      <glyph glyph-name="uni45" unicode="&#x45;" d="M252 654L197 378L569 378L560 333L188 333L130 46L562 46L552 0L70 0L210 700L678 700L668 654L252 654Z"  horiz-adv-x="669" vert-adv-y="1000"  />

      
      <glyph glyph-name="uni46" unicode="&#x46;" d="M252 654L192 355L564 355L555 309L183 309L121 0L70 0L210 700L678 700L668 654L252 654Z"  horiz-adv-x="631" vert-adv-y="1000"  />

      
      <glyph glyph-name="uni47" unicode="&#x47;" d="M492 705Q576 705 640.50 680Q705 655 743 608L707 576Q637 658 489 658Q379 658 294.50 608Q210 558 164 472.50Q118 387 118 285Q118 173 189.50 107.50Q261 42 395 42Q505 42 591 106L640 347L689 347L636 84Q589 42 524.50 18.50Q460-5 389-5Q288-5 215.50 31Q143 67 105 132Q67 197 67 283Q67 398 119 494.50Q171 591 267.50 648Q364 705 492 705Z"  horiz-adv-x="773" vert-adv-y="1000"  />

      
      <glyph glyph-name="uni48" unicode="&#x48;" d="M780 700L640 0L589 0L655 332L187 332L121 0L70 0L210 700L261 700L197 379L665 379L729 700L780 700Z"  horiz-adv-x="814" vert-adv-y="1000"  />

      
      <glyph glyph-name="uni49" unicode="&#x49;" d="M210 700L261 700L121 0L70 0L210 700Z"  horiz-adv-x="295" vert-adv-y="1000"  />

      
      <glyph glyph-name="uni4a" unicode="&#x4a;" d="M147-5Q83-5 35.50 22Q-12 49-34 95L4 127Q23 87 61 64Q99 41 150 41Q216 41 255.50 78.50Q295 116 313 204L403 654L145 654L154 700L463 700L363 201Q341 90 288.50 42.50Q236-5 147-5Z"  horiz-adv-x="491" vert-adv-y="1000"  />

      
      <glyph glyph-name="uni4b" unicode="&#x4b;" d="M383 376L642 0L583 0L346 345L158 184L121 0L70 0L210 700L261 700L172 255L693 700L762 700L383 376Z"  horiz-adv-x="703" vert-adv-y="1000"  />

      
      <glyph glyph-name="uni4c" unicode="&#x4c;" d="M210 700L261 700L130 46L533 46L523 0L70 0L210 700Z"  horiz-adv-x="585" vert-adv-y="1000"  />

      
      <glyph glyph-name="uni4d" unicode="&#x4d;" d="M921 700L781 0L731 0L850 595L463 93L438 93L240 602L120 0L70 0L210 700L252 700L461 159L876 700L921 700Z"  horiz-adv-x="956" vert-adv-y="1000"  />

      
      <glyph glyph-name="uni4e" unicode="&#x4e;" d="M780 700L640 0L597 0L244 616L121 0L70 0L210 700L252 700L606 84L729 700L780 700Z"  horiz-adv-x="814" vert-adv-y="1000"  />

      
      <glyph glyph-name="uni4f" unicode="&#x4f;" d="M387-5Q286-5 214 31Q142 67 104.50 132Q67 197 67 283Q67 397 118.50 493.50Q170 590 265.50 647.50Q361 705 486 705Q587 705 659.50 669Q732 633 769.50 568Q807 503 807 417Q807 303 755 206.50Q703 110 607.50 52.50Q512-5 387-5M392 42Q499 42 582 92.50Q665 143 710 228.50Q755 314 755 415Q755 527 684.50 592.50Q614 658 482 658Q375 658 292 607.50Q209 557 163.50 471.50Q118 386 118 285Q118 174 189 108Q260 42 392 42Z"  horiz-adv-x="838" vert-adv-y="1000"  />

      
      <glyph glyph-name="uni50" unicode="&#x50;" d="M454 700Q570 700 634 649.50Q698 599 698 507Q698 374 612 301.50Q526 229 376 229L167 229L121 0L70 0L210 700L454 700M376 275Q506 275 576 333Q646 391 646 503Q646 576 595.50 615Q545 654 451 654L252 654L176 275L376 275Z"  horiz-adv-x="715" vert-adv-y="1000"  />

      
      <glyph glyph-name="uni51" unicode="&#x51;" d="M588-90Q629-90 665-73.50Q701-57 727-25L752-58Q721-95 677.50-114Q634-133 586-133Q521-133 467.50-100.50Q414-68 367-5Q272-1 204.50 36Q137 73 102 136.50Q67 200 67 283Q67 397 118.50 493.50Q170 590 265.50 647.50Q361 705 486 705Q587 705 659.50 669Q732 633 769.50 568Q807 503 807 417Q807 310 761 218Q715 126 630.50 67Q546 8 433-3Q498-90 588-90M118 285Q118 174 189 108Q260 42 392 42Q499 42 582 92.50Q665 143 710 228.50Q755 314 755 415Q755 527 684.50 592.50Q614 658 482 658Q375 658 292 607.50Q209 557 163.50 471.50Q118 386 118 285Z"  horiz-adv-x="838" vert-adv-y="1000"  />

      
      <glyph glyph-name="uni52" unicode="&#x52;" d="M698 507Q698 399 640.50 330.50Q583 262 478 240L613 0L557 0L426 232Q394 230 377 230L167 230L121 0L70 0L210 700L455 700Q571 700 634.50 649.50Q698 599 698 507M377 275Q507 275 577 333Q647 391 647 503Q647 576 596.50 615Q546 654 452 654L252 654L176 275L377 275Z"  horiz-adv-x="720" vert-adv-y="1000"  />

      
      <glyph glyph-name="uni53" unicode="&#x53;" d="M265-5Q189-5 120 21.50Q51 48 18 88L45 127Q77 89 139.50 64.50Q202 40 269 40Q370 40 430.50 81Q491 122 491 195Q491 233 468.50 257Q446 281 412.50 295Q379 309 322 325Q256 345 216 362Q176 379 148.50 412Q121 445 121 498Q121 562 156 609Q191 656 252 680.50Q313 705 392 705Q453 705 508.50 689Q564 673 603 644L579 602Q542 630 493 645Q444 660 390 660Q292 660 232 618Q172 576 172 503Q172 464 195 439Q218 414 251.50 400Q285 386 344 369Q410 349 449 332.50Q488 316 515 284Q542 252 542 201Q542 103 465 49Q388-5 265-5Z"  horiz-adv-x="609" vert-adv-y="1000"  />

      
      <glyph glyph-name="uni54" unicode="&#x54;" d="M334 654L82 654L92 700L647 700L638 654L386 654L255 0L204 0L334 654Z"  horiz-adv-x="563" vert-adv-y="1000"  />

      
      <glyph glyph-name="uni55" unicode="&#x55;" d="M361-5Q244-5 179.50 54Q115 113 115 219Q115 252 123 297L204 700L255 700L175 298Q167 262 167 222Q167 134 218 88Q269 42 364 42Q474 42 540.50 104.50Q607 167 633 298L713 700L764 700L683 295Q624-5 361-5Z"  horiz-adv-x="793" vert-adv-y="1000"  />

      
      <glyph glyph-name="uni56" unicode="&#x56;" d="M769 700L316 0L266 0L93 700L147 700L302 66L713 700L769 700Z"  horiz-adv-x="687" vert-adv-y="1000"  />

      
      <glyph glyph-name="uni57" unicode="&#x57;" d="M1146 700L769 0L715 0L623 626L279 0L225 0L127 700L178 700L266 68L612 700L660 700L752 68L1094 700L1146 700Z"  horiz-adv-x="1098" vert-adv-y="1000"  />

      
      <glyph glyph-name="uni58" unicode="&#x58;" d="M368 360L568 0L514 0L335 324L30 0L-32 0L312 364L127 700L181 700L347 400L630 700L690 700L368 360Z"  horiz-adv-x="642" vert-adv-y="1000"  />

      
      <glyph glyph-name="uni59" unicode="&#x59;" d="M332 235L285 0L234 0L282 241L92 700L145 700L316 286L651 700L708 700L332 235Z"  horiz-adv-x="625" vert-adv-y="1000"  />

      
      <glyph glyph-name="uni5a" unicode="&#x5a;" d="M681 664L77 46L568 46L558 0L-6 0L2 36L605 654L132 654L141 700L688 700L681 664Z"  horiz-adv-x="646" vert-adv-y="1000"  />

      
      <glyph glyph-name="uni5b" unicode="&#x5b;" d="M217 742L378 742L370 699L259 699L89-151L200-151L192-194L30-194L217 742Z"  horiz-adv-x="306" vert-adv-y="1000"  />

      
      <glyph glyph-name="uni5c" unicode="&#x5c;" d="M227-100L83 842L127 842L271-100L227-100Z"  horiz-adv-x="320" vert-adv-y="1000"  />

      
      <glyph glyph-name="uni5d" unicode="&#x5d;" d="M-67-194L-58-151L53-151L222 699L111 699L120 742L281 742L94-194L-67-194Z"  horiz-adv-x="306" vert-adv-y="1000"  />

      
      <glyph glyph-name="uni5e" unicode="&#x5e;" d="M416 144L337 511L112 144L66 144L322 556L366 556L457 144L416 144Z"  horiz-adv-x="570" vert-adv-y="1000"  />

      
      <glyph glyph-name="uni5f" unicode="&#x5f;" d="M-52 0L448 0L441-36L-59-36L-52 0Z"  horiz-adv-x="500" vert-adv-y="1000"  />

      
      <glyph glyph-name="uni60" unicode="&#x60;" d="M238 725L310 725L426 607L372 607L238 725Z"  horiz-adv-x="600" vert-adv-y="1000"  />

      
      <glyph glyph-name="uni61" unicode="&#x61;" d="M622 522L518 0L470 0L490 102Q452 52 395.50 24Q339-4 270-4Q168-4 106.50 54.50Q45 113 45 213Q45 302 83 373.50Q121 445 188.50 485.50Q256 526 340 526Q421 526 474 491Q527 456 546 392L572 522L622 522M280 41Q350 41 405.50 75Q461 109 493 169.50Q525 230 525 306Q525 389 476.50 435Q428 481 340 481Q270 481 214.50 446.50Q159 412 127 351.50Q95 291 95 216Q95 133 143.50 87Q192 41 280 41Z"  horiz-adv-x="675" vert-adv-y="1000"  />

      
      <glyph glyph-name="uni62" unicode="&#x62;" d="M405 526Q507 526 569 467.50Q631 409 631 309Q631 220 592.50 148.50Q554 77 486.50 36.50Q419-4 335-4Q253-4 200 31.50Q147 67 128 133L102 0L53 0L201 742L251 742L188 424Q226 473 281.50 499.50Q337 526 405 526M336 41Q406 41 461.50 75.50Q517 110 548.50 170Q580 230 580 306Q580 389 531.50 435Q483 481 395 481Q325 481 269.50 447Q214 413 182 352.50Q150 292 150 216Q150 133 199 87Q248 41 336 41Z"  horiz-adv-x="675" vert-adv-y="1000"  />

      
      <glyph glyph-name="uni63" unicode="&#x63;" d="M280-4Q172-4 108.50 55Q45 114 45 213Q45 302 83.50 373.50Q122 445 190.50 485.50Q259 526 345 526Q415 526 465 501.50Q515 477 543 428L502 403Q455 481 342 481Q271 481 215 446.50Q159 412 127 352Q95 292 95 216Q95 133 144 87Q193 41 284 41Q336 41 381.50 61Q427 81 457 117L492 89Q458 45 401.50 20.50Q345-4 280-4Z"  horiz-adv-x="555" vert-adv-y="1000"  />

      
      <glyph glyph-name="uni64" unicode="&#x64;" d="M666 742L518 0L470 0L490 102Q452 52 395.50 24Q339-4 270-4Q168-4 106.50 54.50Q45 113 45 213Q45 302 83 373.50Q121 445 188.50 485.50Q256 526 340 526Q421 526 474 491Q527 456 546 391L616 742L666 742M280 41Q350 41 405.50 75Q461 109 493 169.50Q525 230 525 306Q525 389 476.50 435Q428 481 340 481Q270 481 214.50 446.50Q159 412 127 351.50Q95 291 95 216Q95 133 143.50 87Q192 41 280 41Z"  horiz-adv-x="675" vert-adv-y="1000"  />

      
      <glyph glyph-name="uni65" unicode="&#x65;" d="M96 250Q94 228 94 217Q94 132 143 86.50Q192 41 287 41Q342 41 388.50 59.50Q435 78 466 111L489 76Q454 38 399.50 17Q345-4 283-4Q172-4 108.50 54Q45 112 45 215Q45 303 82 374Q119 445 184 485.50Q249 526 330 526Q432 526 492 468Q552 410 552 308Q552 284 546 250L96 250M329 483Q244 483 182.50 430Q121 377 102 289L504 289Q505 298 505 315Q505 394 457 438.50Q409 483 329 483Z"  horiz-adv-x="598" vert-adv-y="1000"  />

      
      <glyph glyph-name="uni66" unicode="&#x66;" d="M350 703Q301 703 272 677Q243 651 232 594L217 522L384 522L376 479L209 479L114 0L64 0L160 479L63 479L71 522L168 522L184 601Q198 672 240.50 709Q283 746 351 746Q382 746 409 737Q436 728 452 711L428 675Q398 703 350 703Z"  horiz-adv-x="328" vert-adv-y="1000"  />

      
      <glyph glyph-name="uni67" unicode="&#x67;" d="M629 522L536 56Q510-77 438-137.50Q366-198 239-198Q167-198 109-176.50Q51-155 13-116L45-79Q77-114 128-133.50Q179-153 243-153Q347-153 406-104Q465-55 485 48L501 126Q462 75 404 47Q346 19 275 19Q170 19 108.50 75Q47 131 47 227Q47 311 85 379.50Q123 448 191 487Q259 526 344 526Q426 526 481 491Q536 456 555 389L581 522L629 522M284 64Q355 64 411 96.50Q467 129 499 186.50Q531 244 531 316Q531 394 481.50 437.50Q432 481 344 481Q273 481 217 448.50Q161 416 129 358.50Q97 301 97 229Q97 151 146.50 107.50Q196 64 284 64Z"  horiz-adv-x="682" vert-adv-y="1000"  />

      
      <glyph glyph-name="uni68" unicode="&#x68;" d="M402 526Q491 526 539 481.50Q587 437 587 359Q587 332 581 302L521 0L471 0L531 302Q536 325 536 352Q536 414 498.50 447.50Q461 481 389 481Q299 481 239 430.50Q179 380 160 284L103 0L53 0L201 742L251 742L188 425Q262 526 402 526Z"  horiz-adv-x="673" vert-adv-y="1000"  />

      
      <glyph glyph-name="uni69" unicode="&#x69;" d="M157 522L207 522L103 0L53 0L157 522M213 649Q197 649 186 660Q175 671 175 686Q175 704 187.50 717Q200 730 219 730Q235 730 246.50 719Q258 708 258 693Q258 674 245 661.50Q232 649 213 649Z"  horiz-adv-x="261" vert-adv-y="1000"  />

      
      <glyph glyph-name="uni6a" unicode="&#x6a;" d="M-66-198Q-98-198-125.50-189Q-153-180-172-164L-146-126Q-114-155-64-155Q-18-155 9.50-129Q37-103 48-48L162 522L212 522L97-52Q83-126 42.50-162Q2-198-66-198M217 649Q201 649 190 660Q179 671 179 686Q179 704 191.50 717Q204 730 223 730Q239 730 250.50 719Q262 708 262 693Q262 674 249 661.50Q236 649 217 649Z"  horiz-adv-x="266" vert-adv-y="1000"  />

      
      <glyph glyph-name="uni6b" unicode="&#x6b;" d="M335 309L523 0L465 0L296 279L134 154L103 0L53 0L201 742L251 742L147 219L536 522L609 522L335 309Z"  horiz-adv-x="576" vert-adv-y="1000"  />

      
      <glyph glyph-name="uni6c" unicode="&#x6c;" d="M201 742L251 742L103 0L53 0L201 742Z"  horiz-adv-x="261" vert-adv-y="1000"  />

      
      <glyph glyph-name="uni6d" unicode="&#x6d;" d="M796 526Q884 526 931 482.50Q978 439 978 361Q978 334 972 302L911 0L861 0L922 302Q927 325 927 353Q927 414 891 447.50Q855 481 786 481Q700 481 642.50 433.50Q585 386 567 296L507 0L457 0L518 302Q523 325 523 353Q523 414 487 447.50Q451 481 382 481Q295 481 237 430.50Q179 380 160 284L103 0L53 0L157 522L206 522L186 424Q223 476 276 501Q329 526 395 526Q467 526 511 495.50Q555 465 569 409Q608 467 666 496.50Q724 526 796 526Z"  horiz-adv-x="1064" vert-adv-y="1000"  />

      
      <glyph glyph-name="uni6e" unicode="&#x6e;" d="M402 526Q491 526 539 481.50Q587 437 587 359Q587 332 581 302L521 0L471 0L531 302Q536 325 536 352Q536 414 498.50 447.50Q461 481 389 481Q299 481 239 430.50Q179 380 160 284L103 0L53 0L157 522L206 522L186 423Q223 475 278.50 500.50Q334 526 402 526Z"  horiz-adv-x="673" vert-adv-y="1000"  />

      
      <glyph glyph-name="uni6f" unicode="&#x6f;" d="M276-4Q170-4 107.50 55Q45 114 45 213Q45 302 83.50 373Q122 444 190 485Q258 526 344 526Q450 526 512.50 467.50Q575 409 575 309Q575 220 536.50 148.50Q498 77 430 36.50Q362-4 276-4M280 41Q350 41 405.50 75Q461 109 493 169.50Q525 230 525 306Q525 389 476.50 435Q428 481 340 481Q270 481 214.50 446.50Q159 412 127 351.50Q95 291 95 216Q95 133 143.50 87Q192 41 280 41Z"  horiz-adv-x="620" vert-adv-y="1000"  />

      
      <glyph glyph-name="uni70" unicode="&#x70;" d="M405 526Q507 526 569 467.50Q631 409 631 309Q631 220 592.50 148.50Q554 77 486.50 36.50Q419-4 335-4Q254-4 201.50 30.50Q149 65 129 130L64-194L14-194L157 522L206 522L186 421Q224 471 280 498.50Q336 526 405 526M336 41Q406 41 461.50 75.50Q517 110 548.50 170Q580 230 580 306Q580 389 531.50 435Q483 481 395 481Q325 481 269.50 447Q214 413 182 352.50Q150 292 150 216Q150 133 199 87Q248 41 336 41Z"  horiz-adv-x="675" vert-adv-y="1000"  />

      
      <glyph glyph-name="uni71" unicode="&#x71;" d="M622 522L479-194L429-194L488 99Q450 50 394 23Q338-4 270-4Q168-4 106.50 54.50Q45 113 45 213Q45 302 83 373.50Q121 445 188.50 485.50Q256 526 340 526Q422 526 475.50 490.50Q529 455 547 389L574 522L622 522M280 41Q350 41 405.50 75Q461 109 493 169.50Q525 230 525 306Q525 389 476.50 435Q428 481 340 481Q270 481 214.50 446.50Q159 412 127 351.50Q95 291 95 216Q95 133 143.50 87Q192 41 280 41Z"  horiz-adv-x="675" vert-adv-y="1000"  />

      
      <glyph glyph-name="uni72" unicode="&#x72;" d="M184 412Q219 469 273.50 497.50Q328 526 406 526L397 477L381 478Q292 478 235 425Q178 372 157 268L103 0L53 0L157 522L206 522L184 412Z"  horiz-adv-x="394" vert-adv-y="1000"  />

      
      <glyph glyph-name="uni73" unicode="&#x73;" d="M196-4Q135-4 79.50 14.50Q24 33-7 62L20 101Q49 73 97.50 56.50Q146 40 200 40Q281 40 325.50 68.50Q370 97 370 148Q370 177 352 194Q334 211 308 219.50Q282 228 236 238Q182 249 148.50 261Q115 273 92 298.50Q69 324 69 368Q69 440 128.50 483Q188 526 287 526Q337 526 384 512.50Q431 499 459 475L436 436Q407 459 366.50 470.50Q326 482 283 482Q207 482 162.50 452Q118 422 118 373Q118 343 136 325.50Q154 308 181.50 299Q209 290 255 280Q309 269 341.50 257.50Q374 246 397 221Q420 196 420 153Q420 80 359 38Q298-4 196-4Z"  horiz-adv-x="478" vert-adv-y="1000"  />

      
      <glyph glyph-name="uni74" unicode="&#x74;" d="M144 151Q140 132 140 114Q140 39 220 39Q268 39 305 68L320 31Q277-4 208-4Q152-4 120.50 25.50Q89 55 89 107Q89 128 93 147L160 479L63 479L71 522L168 522L191 636L241 636L218 522L384 522L376 479L210 479L144 151Z"  horiz-adv-x="398" vert-adv-y="1000"  />

      
      <glyph glyph-name="uni75" unicode="&#x75;" d="M616 522L512 0L463 0L483 99Q410-4 269-4Q181-4 133.50 40.50Q86 85 86 163Q86 190 92 220L152 522L202 522L142 220Q137 198 137 170Q137 108 173.50 74.50Q210 41 282 41Q372 41 431 91.50Q490 142 509 238L566 522L616 522Z"  horiz-adv-x="669" vert-adv-y="1000"  />

      
      <glyph glyph-name="uni76" unicode="&#x76;" d="M577 522L238 0L187 0L55 522L106 522L222 55L524 522L577 522Z"  horiz-adv-x="528" vert-adv-y="1000"  />

      
      <glyph glyph-name="uni77" unicode="&#x77;" d="M908 522L613 0L565 0L470 454L210 0L162 0L58 522L104 522L195 56L460 522L503 522L597 57L859 522L908 522Z"  horiz-adv-x="861" vert-adv-y="1000"  />

      
      <glyph glyph-name="uni78" unicode="&#x78;" d="M288 266L443 0L389 0L255 233L30 0L-30 0L233 270L87 522L140 522L266 304L477 522L536 522L288 266Z"  horiz-adv-x="519" vert-adv-y="1000"  />

      
      <glyph glyph-name="uni79" unicode="&#x79;" d="M577 522L187-77Q143-145 103.50-171.50Q64-198 10-198Q-26-198-58-186Q-90-174-108-152L-79-115Q-44-154 15-154Q51-154 80.50-134Q110-114 143-64L187 2L55 522L106 522L223 55L525 522L577 522Z"  horiz-adv-x="528" vert-adv-y="1000"  />

      
      <glyph glyph-name="uni7a" unicode="&#x7a;" d="M498 488L68 43L415 43L406 0L-9 0L-2 34L427 479L93 479L101 522L505 522L498 488Z"  horiz-adv-x="503" vert-adv-y="1000"  />

      
      <glyph glyph-name="uni7b" unicode="&#x7b;" d="M393 742L384 699L356 699Q280 699 265 626L209 348Q202 314 189 297Q176 280 153 273Q182 260 182 225Q182 214 179 200L127-61Q124-78 124-91Q124-121 140.50-136Q157-151 185-151L215-151L206-194L174-194Q127-194 99.50-170Q72-146 72-101Q72-82 76-65L129 201Q131 215 131 219Q131 253 95 253L60 253L69 296L104 296Q127 296 140 308Q153 320 158 347L215 630Q226 687 261.50 714.50Q297 742 361 742L393 742Z"  horiz-adv-x="320" vert-adv-y="1000"  />

      
      <glyph glyph-name="uni7c" unicode="&#x7c;" d="M218 742L265 742L78-194L31-194L218 742Z"  horiz-adv-x="291" vert-adv-y="1000"  />

      
      <glyph glyph-name="uni7d" unicode="&#x7d;" d="M265 295L256 252L222 252Q198 252 185 240Q172 228 167 201L110-82Q99-139 64-166.50Q29-194-35-194L-68-194L-59-151L-30-151Q46-151 61-78L117 200Q124 235 136.50 251.50Q149 268 172 275Q143 288 143 324Q143 335 146 348L199 609Q202 626 202 638Q202 669 185.50 684Q169 699 140 699L111 699L119 742L152 742Q199 742 226 718.50Q253 695 253 649Q253 630 249 613L196 347Q194 335 194 330Q194 295 230 295L265 295Z"  horiz-adv-x="320" vert-adv-y="1000"  />

      
      <glyph glyph-name="uni7e" unicode="&#x7e;" d="M397 278Q362 278 338.50 293Q315 308 288 336Q265 360 248 371.50Q231 383 208 383Q170 383 143 355.50Q116 328 106 282L69 282Q82 349 119.50 386Q157 423 208 423Q243 423 266.50 408Q290 393 316 365Q339 341 356 329.50Q373 318 396 318Q434 318 461 345Q488 372 499 418L535 418Q522 351 485 314.50Q448 278 397 278Z"  horiz-adv-x="569" vert-adv-y="1000"  />

      
      <glyph glyph-name="unia1" unicode="&#xa1;" d="M170 444Q153 444 141 455.50Q129 467 129 483Q129 501 141.50 513.50Q154 526 172 526Q189 526 200.50 514.50Q212 503 212 486Q212 469 199.50 456.50Q187 444 170 444M119 321L157 321L72-154L14-154L119 321Z"  horiz-adv-x="252" vert-adv-y="1000"  />

      
      <glyph glyph-name="unia2" unicode="&#xa2;" d="M502 403Q461 471 369 480L281 41L284 41Q336 41 381.50 61Q427 81 457 117L492 89Q458 45 401.50 20.50Q345-4 280-4L272-4L249-120L212-120L236-1Q147 11 96 68Q45 125 45 213Q45 302 83 373Q121 444 188.50 484.50Q256 525 341 526L364 642L401 642L378 525Q493 514 543 428L502 403M95 216Q95 142 133.50 97.50Q172 53 245 43L332 481Q264 479 210 444Q156 409 125.50 349.50Q95 290 95 216Z"  horiz-adv-x="555" vert-adv-y="1000"  />

      
      <glyph glyph-name="unia3" unicode="&#xa3;" d="M486 658Q382 658 320 610.50Q258 563 238 463L219 368L504 368L497 332L212 332L154 46L557 46L548 0L-22 0L-13 46L103 46L160 332L43 332L51 368L167 368L187 469Q210 587 289.50 646Q369 705 489 705Q552 705 602.50 690.50Q653 676 686 647L660 606Q600 658 486 658Z"  horiz-adv-x="629" vert-adv-y="1000"  />

      
      <glyph glyph-name="unia4" unicode="&#xa4;" d="M639 317Q639 267 620.50 221.50Q602 176 569 140L675 35L644 3L536 110Q499 82 454 66Q409 50 361 50Q312 50 267.50 66Q223 82 186 111L77 3L47 35L153 141Q120 177 102 222.50Q84 268 84 317Q84 367 102 412.50Q120 458 153 494L47 600L77 632L185 525Q222 555 267 571Q312 587 361 587Q410 587 455 571Q500 555 537 526L644 632L675 600L569 495Q602 459 620.50 413Q639 367 639 317M127 317Q127 256 158.50 205Q190 154 244 123.50Q298 93 361 93Q424 93 478.50 123.50Q533 154 565 205.50Q597 257 597 317Q597 378 565 430.50Q533 483 478.50 513.50Q424 544 361 544Q298 544 244 513.50Q190 483 158.50 430.50Q127 378 127 317Z"  horiz-adv-x="700" vert-adv-y="1000"  />

      
      <glyph glyph-name="unia5" unicode="&#xa5;" d="M401 313L607 313L600 279L372 279L351 175L579 175L572 141L344 141L316 0L264 0L292 141L64 141L71 175L299 175L320 279L92 279L99 313L310 313L92 700L146 700L355 325L712 700L768 700L401 313Z"  horiz-adv-x="685" vert-adv-y="1000"  />

      
      <glyph glyph-name="unia6" unicode="&#xa6;" d="M218 742L265 742L195 392L148 392L218 742M101 156L148 156L78-194L31-194L101 156Z"  horiz-adv-x="291" vert-adv-y="1000"  />

      
      <glyph glyph-name="unia7" unicode="&#xa7;" d="M344 662Q290 662 249.50 646Q209 630 188 603Q167 576 167 543Q167 512 184 493Q201 474 226 464Q251 454 296 441Q346 428 377.50 414.50Q409 401 430.50 374Q452 347 452 303Q452 251 419.50 212Q387 173 332 155Q380 122 380 61Q380 13 352-24.50Q324-62 273-83Q222-104 155-104Q98-104 50-86Q2-68-29-37L-4 1Q62-62 161-62Q241-62 287.50-28.50Q334 5 334 58Q334 88 316.50 107Q299 126 273 137Q247 148 204 160Q154 175 122.50 188.50Q91 202 69.50 228.50Q48 255 48 298Q48 347 80.50 387Q113 427 169 445Q121 478 121 540Q121 587 149.50 624.50Q178 662 229.50 683Q281 704 347 704Q399 704 448 690Q497 676 525 652L501 615Q473 638 431.50 650Q390 662 344 662M407 299Q407 331 389.50 350.50Q372 370 346 380.50Q320 391 276 404Q240 413 214 423Q158 410 126 377Q94 344 94 302Q94 272 111.50 252.50Q129 233 154.50 222Q180 211 224 198Q270 185 287 178Q344 190 375.50 222Q407 254 407 299Z"  horiz-adv-x="482" vert-adv-y="1000"  />

      
      <glyph glyph-name="unia8" unicode="&#xa8;" d="M293 634Q279 634 269 643.50Q259 653 259 667Q259 683 270 694.50Q281 706 297 706Q311 706 321 696.50Q331 687 331 673Q331 657 320 645.50Q309 634 293 634M466 634Q452 634 442 643.50Q432 653 432 667Q432 683 443 694.50Q454 706 469 706Q483 706 493.50 696.50Q504 687 504 673Q504 657 492.50 645.50Q481 634 466 634Z"  horiz-adv-x="600" vert-adv-y="1000"  />

      
      <glyph glyph-name="unia9" unicode="&#xa9;" d="M424-3Q326-3 245.50 44Q165 91 118.50 172Q72 253 72 350Q72 447 118.50 528Q165 609 246 656Q327 703 426 703Q525 703 605.50 657Q686 611 732 530.50Q778 450 778 352Q778 254 731 172.50Q684 91 603 44Q522-3 424-3M424 26Q514 26 588 69.50Q662 113 705 187.50Q748 262 748 352Q748 442 706 515.50Q664 589 590.50 631.50Q517 674 426 674Q336 674 261.50 631Q187 588 144.50 513.50Q102 439 102 350Q102 261 144.50 186.50Q187 112 261 69Q335 26 424 26M433 141Q374 141 327 167.50Q280 194 253 241.50Q226 289 226 350Q226 411 253 458.50Q280 506 327 532.50Q374 559 433 559Q482 559 522.50 540Q563 521 589 486L557 461Q536 491 503.50 506Q471 521 432 521Q385 521 348 499.50Q311 478 289.50 439Q268 400 268 350Q268 300 289.50 261Q311 222 348 200.50Q385 179 432 179Q471 179 503.50 194Q536 209 557 239L589 215Q563 179 522.50 160Q482 141 433 141Z"  horiz-adv-x="815" vert-adv-y="1000"  />

      
      <glyph glyph-name="uniaa" unicode="&#xaa;" d="M279 745Q336 745 367 721.50Q398 698 398 652Q398 639 395 622L357 432L319 432L329 482Q284 429 204 429Q153 429 124 450Q95 471 95 506Q95 553 131.50 579Q168 605 231 605L352 605L356 625Q359 639 359 649Q359 681 336.50 697Q314 713 273 713Q241 713 209 703Q177 693 154 675L140 703Q166 722 203 733.50Q240 745 279 745M212 458Q289 458 334 518L347 579L230 579Q184 579 158.50 561Q133 543 133 510Q133 458 212 458Z"  horiz-adv-x="398" vert-adv-y="1000"  />

      
      <glyph glyph-name="uniab" unicode="&#xab;" d="M104 260L209 74L161 74L53 261L236 449L287 449L104 260M271 260L376 74L328 74L220 261L403 449L454 449L271 260Z"  horiz-adv-x="455" vert-adv-y="1000"  />

      
      <glyph glyph-name="uniac" unicode="&#xac;" d="M475 149L430 149L466 329L85 329L94 371L519 371L475 149Z"  horiz-adv-x="569" vert-adv-y="1000"  />

      
      <glyph glyph-name="uniad" unicode="&#xad;" d="M68 291L325 291L316 246L59 246L68 291Z"  horiz-adv-x="381" vert-adv-y="1000"  />

      
      <glyph glyph-name="uniae" unicode="&#xae;" d="M426 703Q525 703 605.50 657Q686 611 732 530.50Q778 450 778 352Q778 254 731 172.50Q684 91 603 44Q522-3 424-3Q326-3 245.50 44Q165 91 118.50 172Q72 253 72 350Q72 447 118.50 528Q165 609 246 656Q327 703 426 703M424 26Q514 26 588 69.50Q662 113 705 187.50Q748 262 748 352Q748 442 706 515.50Q664 589 590.50 631.50Q517 674 426 674Q336 674 261.50 631Q187 588 144.50 513.50Q102 439 102 350Q102 261 144.50 186.50Q187 112 261 69Q335 26 424 26M602 421Q602 374 577 341Q552 308 507 294L604 145L563 145L471 287Q463 286 445 286L330 286L330 145L291 145L291 555L445 555Q517 555 559.50 518.50Q602 482 602 421M442 320Q500 320 532 346.50Q564 373 564 421Q564 468 532 494.50Q500 521 442 521L329 521L329 320L442 320Z"  horiz-adv-x="815" vert-adv-y="1000"  />

      
      <glyph glyph-name="uniaf" unicode="&#xaf;" d="M237 684L531 684L524 648L230 648L237 684Z"  horiz-adv-x="600" vert-adv-y="1000"  />

      
      <glyph glyph-name="unib0" unicode="&#xb0;" d="M268 394Q225 394 189.50 415Q154 436 133 471.50Q112 507 112 549Q112 592 133 627.50Q154 663 189.50 683.50Q225 704 268 704Q310 704 346 683.50Q382 663 402.50 627.50Q423 592 423 549Q423 507 402 471.50Q381 436 345.50 415Q310 394 268 394M268 426Q319 426 354.50 462Q390 498 390 549Q390 601 355 636.50Q320 672 268 672Q216 672 181 636.50Q146 601 146 549Q146 497 181 461.50Q216 426 268 426Z"  horiz-adv-x="419" vert-adv-y="1000"  />

      
      <glyph glyph-name="unib1" unicode="&#xb1;" d="M523 390L514 347L324 347L287 164L242 164L279 347L89 347L97 390L287 390L324 574L369 574L332 390L523 390M28 43L453 43L444 0L20 0L28 43Z"  horiz-adv-x="569" vert-adv-y="1000"  />

      
      <glyph glyph-name="unib2" unicode="&#xb2;" d="M133 361L392 361L385 327L62 327L67 353L292 518Q348 559 367.50 585Q387 611 387 640Q387 674 359.50 692.50Q332 711 281 711Q196 711 143 663L119 687Q148 715 190.50 730Q233 745 285 745Q352 745 389 717.50Q426 690 426 643Q426 607 404 575Q382 543 319 497L133 361Z"  horiz-adv-x="430" vert-adv-y="1000"  />

      
      <glyph glyph-name="unib3" unicode="&#xb3;" d="M441 716L276 563Q339 562 373 534Q407 506 407 459Q407 396 357 360Q307 324 222 324Q169 324 125.50 339.50Q82 355 60 379L81 408Q103 385 140 371.50Q177 358 225 358Q292 358 330 384Q368 410 368 457Q368 493 341 512.50Q314 532 262 532L219 532L224 559L384 708L132 708L139 742L446 742L441 716Z"  horiz-adv-x="430" vert-adv-y="1000"  />

      
      <glyph glyph-name="unib4" unicode="&#xb4;" d="M462 725L537 725L367 607L310 607L462 725Z"  horiz-adv-x="600" vert-adv-y="1000"  />

      
      <glyph glyph-name="unib5" unicode="&#xb5;" d="M621 522L517 0L469 0L489 99Q452 47 399 21.50Q346-4 283-4Q158-4 120 81L65-194L15-194L158 522L208 522L148 220Q143 198 143 170Q143 108 179.50 74.50Q216 41 287 41Q377 41 436.50 91.50Q496 142 515 238L571 522L621 522Z"  horiz-adv-x="675" vert-adv-y="1000"  />

      
      <glyph glyph-name="unib6" unicode="&#xb6;" d="M254 405Q178 406 130.50 444Q83 482 83 549Q83 643 150 692.50Q217 742 328 742L593 742L425-100L381-100L541 701L356 701L197-100L153-100L254 405Z"  horiz-adv-x="619" vert-adv-y="1000"  />

      
      <glyph glyph-name="unib7" unicode="&#xb7;" d="M120 225Q103 225 91 237Q79 249 79 266Q79 285 91.50 298Q104 311 122 311Q139 311 151 299Q163 287 163 270Q163 251 150.50 238Q138 225 120 225Z"  horiz-adv-x="240" vert-adv-y="1000"  />

      
      <glyph glyph-name="unib8" unicode="&#xb8;" d="M193-217Q142-217 111-192L130-164Q157-185 196-185Q229-185 248.50-168.50Q268-152 268-125Q268-104 253-92.50Q238-81 210-81L191-81L232 6L265 6L238-53Q271-57 289.50-75.50Q308-94 308-123Q308-164 276-190.50Q244-217 193-217Z"  horiz-adv-x="600" vert-adv-y="1000"  />

      
      <glyph glyph-name="unib9" unicode="&#xb9;" d="M385 360L378 327L99 327L105 360L232 360L302 709L183 709L189 742L348 742L272 360L385 360Z"  horiz-adv-x="430" vert-adv-y="1000"  />

      
      <glyph glyph-name="uniba" unicode="&#xba;" d="M249 429Q182 429 141 466.50Q100 504 100 565Q100 615 125 656.50Q150 698 194 721.50Q238 745 293 745Q360 745 400.50 708Q441 671 441 610Q441 559 416.50 517.50Q392 476 348 452.50Q304 429 249 429M253 463Q296 463 330.50 482.50Q365 502 384 535Q403 568 403 609Q403 655 371.50 683.50Q340 712 290 712Q246 712 211.50 692.50Q177 673 157.50 639.50Q138 606 138 566Q138 519 169.50 491Q201 463 253 463Z"  horiz-adv-x="412" vert-adv-y="1000"  />

      
      <glyph glyph-name="unibb" unicode="&#xbb;" d="M235 261L52 74L2 74L184 264L80 449L127 449L235 261M402 261L219 74L169 74L351 264L247 449L294 449L402 261Z"  horiz-adv-x="455" vert-adv-y="1000"  />

      
      <glyph glyph-name="unibc" unicode="&#xbc;" d="M377 318L370 285L91 285L97 318L224 318L294 667L175 667L181 700L340 700L264 318L377 318M814 700L861 700L247 0L200 0L814 700M963 112L869 112L847 0L808 0L831 112L595 112L601 139L864 415L911 415L653 145L840 145L859 242L895 242L876 145L970 145L963 112Z"  horiz-adv-x="1025" vert-adv-y="1000"  />

      
      <glyph glyph-name="unibd" unicode="&#xbd;" d="M377 318L370 285L91 285L97 318L224 318L294 667L175 667L181 700L340 700L264 318L377 318M814 700L861 700L247 0L200 0L814 700M663 34L922 34L915 0L592 0L597 26L822 191Q878 232 897.50 258Q917 284 917 313Q917 347 889.50 365.50Q862 384 811 384Q726 384 673 336L649 360Q678 388 720.50 403Q763 418 815 418Q882 418 919 390.50Q956 363 956 316Q956 280 934 248Q912 216 849 170L663 34Z"  horiz-adv-x="1025" vert-adv-y="1000"  />

      
      <glyph glyph-name="unibe" unicode="&#xbe;" d="M433 674L268 521Q331 520 365 492Q399 464 399 417Q399 354 349 318Q299 282 214 282Q161 282 117.50 297.50Q74 313 52 337L73 366Q95 343 132 329.50Q169 316 217 316Q284 316 322 342Q360 368 360 415Q360 451 333 470.50Q306 490 254 490L211 490L216 517L376 666L124 666L131 700L438 700L433 674M814 700L861 700L247 0L200 0L814 700M963 112L869 112L847 0L808 0L831 112L595 112L601 139L864 415L911 415L653 145L840 145L859 242L895 242L876 145L970 145L963 112Z"  horiz-adv-x="1025" vert-adv-y="1000"  />

      
      <glyph glyph-name="unibf" unicode="&#xbf;" d="M339 444Q322 444 310.50 455.50Q299 467 299 483Q299 501 311.50 513.50Q324 526 341 526Q358 526 369.50 514.50Q381 503 381 487Q381 469 368.50 456.50Q356 444 339 444M229-159Q136-159 83.50-119Q31-79 31-9Q31 37 49 71Q67 105 93 128Q119 151 162 182Q214 218 243 248Q272 278 281 321L333 321Q323 267 290.50 232.50Q258 198 200 158Q160 131 136.50 110.50Q113 90 97.50 61.50Q82 33 82-4Q82-55 122-84.50Q162-114 235-114Q305-114 357.50-93.50Q410-73 450-31L483-63Q392-159 229-159Z"  horiz-adv-x="562" vert-adv-y="1000"  />

      
      <glyph glyph-name="unic0" unicode="&#xc0;" d="M546 197L139 197L10 0L-47 0L415 700L466 700L648 0L596 0L546 197M535 240L432 646L167 240L535 240M320 875L392 875L508 757L454 757L320 875Z"  horiz-adv-x="705" vert-adv-y="1000"  />

      
      <glyph glyph-name="unic1" unicode="&#xc1;" d="M546 197L139 197L10 0L-47 0L415 700L466 700L648 0L596 0L546 197M535 240L432 646L167 240L535 240M544 875L619 875L449 757L392 757L544 875Z"  horiz-adv-x="705" vert-adv-y="1000"  />

      
      <glyph glyph-name="unic2" unicode="&#xc2;" d="M546 197L139 197L10 0L-47 0L415 700L466 700L648 0L596 0L546 197M535 240L432 646L167 240L535 240M557 757L462 844L349 757L297 757L437 875L492 875L605 757L557 757Z"  horiz-adv-x="705" vert-adv-y="1000"  />

      
      <glyph glyph-name="unic3" unicode="&#xc3;" d="M546 197L139 197L10 0L-47 0L415 700L466 700L648 0L596 0L546 197M535 240L432 646L167 240L535 240M527 765Q505 765 489.50 774.50Q474 784 453 803Q437 818 424.50 826Q412 834 398 834Q376 834 360.50 816.50Q345 799 340 769L307 769Q314 815 338.50 842Q363 869 399 869Q420 869 435.50 859.50Q451 850 472 831Q488 816 500.50 808Q513 800 527 800Q549 800 565 817.50Q581 835 586 863L619 863Q611 818 587 791.50Q563 765 527 765Z"  horiz-adv-x="705" vert-adv-y="1000"  />

      
      <glyph glyph-name="unic4" unicode="&#xc4;" d="M546 197L139 197L10 0L-47 0L415 700L466 700L648 0L596 0L546 197M535 240L432 646L167 240L535 240M375 784Q361 784 351 793.50Q341 803 341 817Q341 833 352 844.50Q363 856 379 856Q393 856 403 846.50Q413 837 413 823Q413 807 402 795.50Q391 784 375 784M548 784Q534 784 524 793.50Q514 803 514 817Q514 833 525 844.50Q536 856 551 856Q565 856 575.50 846.50Q586 837 586 823Q586 807 574.50 795.50Q563 784 548 784Z"  horiz-adv-x="705" vert-adv-y="1000"  />

      
      <glyph glyph-name="unic5" unicode="&#xc5;" d="M546 197L139 197L10 0L-47 0L415 700L466 700L648 0L596 0L546 197M535 240L432 646L167 240L535 240M474 774Q432 774 403.50 802.50Q375 831 375 871Q375 912 403.50 941.50Q432 971 474 971Q516 971 545 941.50Q574 912 574 871Q574 831 545.50 802.50Q517 774 474 774M474 802Q505 802 525 822Q545 842 545 871Q545 901 524.50 921.50Q504 942 474 942Q444 942 424.50 921.50Q405 901 405 871Q405 841 424.50 821.50Q444 802 474 802Z"  horiz-adv-x="705" vert-adv-y="1000"  />

      
      <glyph glyph-name="unic6" unicode="&#xc6;" d="M605 654L550 378L922 378L913 333L541 333L483 46L915 46L905 0L423 0L462 197L172 197L12 0L-48 0L523 700L1031 700L1021 654L605 654M471 240L554 655L545 655L207 240L471 240Z"  horiz-adv-x="1022" vert-adv-y="1000"  />

      
      <glyph glyph-name="unic7" unicode="&#xc7;" d="M389-5Q287-5 214.50 31Q142 67 104.50 132Q67 197 67 283Q67 397 119 494Q171 591 267 648Q363 705 491 705Q572 705 635.50 680Q699 655 734 609L698 576Q628 658 487 658Q377 658 293 607.50Q209 557 163.50 472Q118 387 118 285Q118 173 189 107.50Q260 42 393 42Q537 42 624 126L655 91Q609 45 539.50 20Q470-5 389-5M308-217Q257-217 226-192L245-164Q272-185 311-185Q344-185 363.50-168.50Q383-152 383-125Q383-104 368-92.50Q353-81 325-81L306-81L347 6L380 6L353-53Q386-57 404.50-75.50Q423-94 423-123Q423-164 391-190.50Q359-217 308-217Z"  horiz-adv-x="716" vert-adv-y="1000"  />

      
      <glyph glyph-name="unic8" unicode="&#xc8;" d="M252 654L197 378L569 378L560 333L188 333L130 46L562 46L552 0L70 0L210 700L678 700L668 654L252 654M324 875L396 875L512 757L458 757L324 875Z"  horiz-adv-x="669" vert-adv-y="1000"  />

      
      <glyph glyph-name="unic9" unicode="&#xc9;" d="M252 654L197 378L569 378L560 333L188 333L130 46L562 46L552 0L70 0L210 700L678 700L668 654L252 654M548 875L623 875L453 757L396 757L548 875Z"  horiz-adv-x="669" vert-adv-y="1000"  />

      
      <glyph glyph-name="unica" unicode="&#xca;" d="M252 654L197 378L569 378L560 333L188 333L130 46L562 46L552 0L70 0L210 700L678 700L668 654L252 654M561 757L466 844L353 757L301 757L441 875L496 875L609 757L561 757Z"  horiz-adv-x="669" vert-adv-y="1000"  />

      
      <glyph glyph-name="unicb" unicode="&#xcb;" d="M252 654L197 378L569 378L560 333L188 333L130 46L562 46L552 0L70 0L210 700L678 700L668 654L252 654M379 784Q365 784 355 793.50Q345 803 345 817Q345 833 356 844.50Q367 856 383 856Q397 856 407 846.50Q417 837 417 823Q417 807 406 795.50Q395 784 379 784M552 784Q538 784 528 793.50Q518 803 518 817Q518 833 529 844.50Q540 856 555 856Q569 856 579.50 846.50Q590 837 590 823Q590 807 578.50 795.50Q567 784 552 784Z"  horiz-adv-x="669" vert-adv-y="1000"  />

      
      <glyph glyph-name="unicc" unicode="&#xcc;" d="M210 700L261 700L121 0L70 0L210 700M115 875L187 875L303 757L249 757L115 875Z"  horiz-adv-x="295" vert-adv-y="1000"  />

      
      <glyph glyph-name="unicd" unicode="&#xcd;" d="M210 700L261 700L121 0L70 0L210 700M339 875L414 875L244 757L187 757L339 875Z"  horiz-adv-x="295" vert-adv-y="1000"  />

      
      <glyph glyph-name="unice" unicode="&#xce;" d="M210 700L261 700L121 0L70 0L210 700M352 757L257 844L144 757L92 757L232 875L287 875L400 757L352 757Z"  horiz-adv-x="295" vert-adv-y="1000"  />

      
      <glyph glyph-name="unicf" unicode="&#xcf;" d="M210 700L261 700L121 0L70 0L210 700M170 784Q156 784 146 793.50Q136 803 136 817Q136 833 147 844.50Q158 856 174 856Q188 856 198 846.50Q208 837 208 823Q208 807 197 795.50Q186 784 170 784M343 784Q329 784 319 793.50Q309 803 309 817Q309 833 320 844.50Q331 856 346 856Q360 856 370.50 846.50Q381 837 381 823Q381 807 369.50 795.50Q358 784 343 784Z"  horiz-adv-x="295" vert-adv-y="1000"  />

      
      <glyph glyph-name="unid0" unicode="&#xd0;" d="M213 700L473 700Q576 700 649.50 665Q723 630 761 566Q799 502 799 417Q799 296 745 201Q691 106 592 53Q493 0 363 0L73 0L213 700M366 46Q481 46 567.50 93Q654 140 700.50 224Q747 308 747 415Q747 526 676 590Q605 654 467 654L255 654L133 46L366 46M39 377L415 377L406 334L30 334L39 377Z"  horiz-adv-x="829" vert-adv-y="1000"  />

      
      <glyph glyph-name="unid1" unicode="&#xd1;" d="M780 700L640 0L597 0L244 616L121 0L70 0L210 700L252 700L606 84L729 700L780 700M582 765Q560 765 544.50 774.50Q529 784 508 803Q492 818 479.50 826Q467 834 453 834Q431 834 415.50 816.50Q400 799 395 769L362 769Q369 815 393.50 842Q418 869 454 869Q475 869 490.50 859.50Q506 850 527 831Q543 816 555.50 808Q568 800 582 800Q604 800 620 817.50Q636 835 641 863L674 863Q666 818 642 791.50Q618 765 582 765Z"  horiz-adv-x="814" vert-adv-y="1000"  />

      
      <glyph glyph-name="unid2" unicode="&#xd2;" d="M387-5Q286-5 214 31Q142 67 104.50 132Q67 197 67 283Q67 397 118.50 493.50Q170 590 265.50 647.50Q361 705 486 705Q587 705 659.50 669Q732 633 769.50 568Q807 503 807 417Q807 303 755 206.50Q703 110 607.50 52.50Q512-5 387-5M392 42Q499 42 582 92.50Q665 143 710 228.50Q755 314 755 415Q755 527 684.50 592.50Q614 658 482 658Q375 658 292 607.50Q209 557 163.50 471.50Q118 386 118 285Q118 174 189 108Q260 42 392 42M386 875L458 875L574 757L520 757L386 875Z"  horiz-adv-x="838" vert-adv-y="1000"  />

      
      <glyph glyph-name="unid3" unicode="&#xd3;" d="M387-5Q286-5 214 31Q142 67 104.50 132Q67 197 67 283Q67 397 118.50 493.50Q170 590 265.50 647.50Q361 705 486 705Q587 705 659.50 669Q732 633 769.50 568Q807 503 807 417Q807 303 755 206.50Q703 110 607.50 52.50Q512-5 387-5M392 42Q499 42 582 92.50Q665 143 710 228.50Q755 314 755 415Q755 527 684.50 592.50Q614 658 482 658Q375 658 292 607.50Q209 557 163.50 471.50Q118 386 118 285Q118 174 189 108Q260 42 392 42M610 875L685 875L515 757L458 757L610 875Z"  horiz-adv-x="838" vert-adv-y="1000"  />

      
      <glyph glyph-name="unid4" unicode="&#xd4;" d="M387-5Q286-5 214 31Q142 67 104.50 132Q67 197 67 283Q67 397 118.50 493.50Q170 590 265.50 647.50Q361 705 486 705Q587 705 659.50 669Q732 633 769.50 568Q807 503 807 417Q807 303 755 206.50Q703 110 607.50 52.50Q512-5 387-5M392 42Q499 42 582 92.50Q665 143 710 228.50Q755 314 755 415Q755 527 684.50 592.50Q614 658 482 658Q375 658 292 607.50Q209 557 163.50 471.50Q118 386 118 285Q118 174 189 108Q260 42 392 42M623 757L528 844L415 757L363 757L503 875L558 875L671 757L623 757Z"  horiz-adv-x="838" vert-adv-y="1000"  />

      
      <glyph glyph-name="unid5" unicode="&#xd5;" d="M387-5Q286-5 214 31Q142 67 104.50 132Q67 197 67 283Q67 397 118.50 493.50Q170 590 265.50 647.50Q361 705 486 705Q587 705 659.50 669Q732 633 769.50 568Q807 503 807 417Q807 303 755 206.50Q703 110 607.50 52.50Q512-5 387-5M392 42Q499 42 582 92.50Q665 143 710 228.50Q755 314 755 415Q755 527 684.50 592.50Q614 658 482 658Q375 658 292 607.50Q209 557 163.50 471.50Q118 386 118 285Q118 174 189 108Q260 42 392 42M593 765Q571 765 555.50 774.50Q540 784 519 803Q503 818 490.50 826Q478 834 464 834Q442 834 426.50 816.50Q411 799 406 769L373 769Q380 815 404.50 842Q429 869 465 869Q486 869 501.50 859.50Q517 850 538 831Q554 816 566.50 808Q579 800 593 800Q615 800 631 817.50Q647 835 652 863L685 863Q677 818 653 791.50Q629 765 593 765Z"  horiz-adv-x="838" vert-adv-y="1000"  />

      
      <glyph glyph-name="unid6" unicode="&#xd6;" d="M387-5Q286-5 214 31Q142 67 104.50 132Q67 197 67 283Q67 397 118.50 493.50Q170 590 265.50 647.50Q361 705 486 705Q587 705 659.50 669Q732 633 769.50 568Q807 503 807 417Q807 303 755 206.50Q703 110 607.50 52.50Q512-5 387-5M392 42Q499 42 582 92.50Q665 143 710 228.50Q755 314 755 415Q755 527 684.50 592.50Q614 658 482 658Q375 658 292 607.50Q209 557 163.50 471.50Q118 386 118 285Q118 174 189 108Q260 42 392 42M441 784Q427 784 417 793.50Q407 803 407 817Q407 833 418 844.50Q429 856 445 856Q459 856 469 846.50Q479 837 479 823Q479 807 468 795.50Q457 784 441 784M614 784Q600 784 590 793.50Q580 803 580 817Q580 833 591 844.50Q602 856 617 856Q631 856 641.50 846.50Q652 837 652 823Q652 807 640.50 795.50Q629 784 614 784Z"  horiz-adv-x="838" vert-adv-y="1000"  />

      
      <glyph glyph-name="unid7" unicode="&#xd7;" d="M331 348L448 213L417 184L300 320L151 184L124 216L273 352L156 487L187 516L304 380L453 516L480 484L331 348Z"  horiz-adv-x="569" vert-adv-y="1000"  />

      
      <glyph glyph-name="unid8" unicode="&#xd8;" d="M387-5Q286-5 214 31Q142 67 104.50 132Q67 197 67 283Q67 397 118.50 493.50Q170 590 265.50 647.50Q361 705 486 705Q587 705 659.50 669Q732 633 769.50 568Q807 503 807 417Q807 303 755 206.50Q703 110 607.50 52.50Q512-5 387-5M392 42Q499 42 582 92.50Q665 143 710 228.50Q755 314 755 415Q755 527 684.50 592.50Q614 658 482 658Q375 658 292 607.50Q209 557 163.50 471.50Q118 386 118 285Q118 174 189 108Q260 42 392 42M801 770L848 770L72-70L25-70L801 770Z"  horiz-adv-x="838" vert-adv-y="1000"  />

      
      <glyph glyph-name="unid9" unicode="&#xd9;" d="M361-5Q244-5 179.50 54Q115 113 115 219Q115 252 123 297L204 700L255 700L175 298Q167 262 167 222Q167 134 218 88Q269 42 364 42Q474 42 540.50 104.50Q607 167 633 298L713 700L764 700L683 295Q624-5 361-5M364 875L436 875L552 757L498 757L364 875Z"  horiz-adv-x="793" vert-adv-y="1000"  />

      
      <glyph glyph-name="unida" unicode="&#xda;" d="M361-5Q244-5 179.50 54Q115 113 115 219Q115 252 123 297L204 700L255 700L175 298Q167 262 167 222Q167 134 218 88Q269 42 364 42Q474 42 540.50 104.50Q607 167 633 298L713 700L764 700L683 295Q624-5 361-5M588 875L663 875L493 757L436 757L588 875Z"  horiz-adv-x="793" vert-adv-y="1000"  />

      
      <glyph glyph-name="unidb" unicode="&#xdb;" d="M361-5Q244-5 179.50 54Q115 113 115 219Q115 252 123 297L204 700L255 700L175 298Q167 262 167 222Q167 134 218 88Q269 42 364 42Q474 42 540.50 104.50Q607 167 633 298L713 700L764 700L683 295Q624-5 361-5M601 757L506 844L393 757L341 757L481 875L536 875L649 757L601 757Z"  horiz-adv-x="793" vert-adv-y="1000"  />

      
      <glyph glyph-name="unidc" unicode="&#xdc;" d="M361-5Q244-5 179.50 54Q115 113 115 219Q115 252 123 297L204 700L255 700L175 298Q167 262 167 222Q167 134 218 88Q269 42 364 42Q474 42 540.50 104.50Q607 167 633 298L713 700L764 700L683 295Q624-5 361-5M419 784Q405 784 395 793.50Q385 803 385 817Q385 833 396 844.50Q407 856 423 856Q437 856 447 846.50Q457 837 457 823Q457 807 446 795.50Q435 784 419 784M592 784Q578 784 568 793.50Q558 803 558 817Q558 833 569 844.50Q580 856 595 856Q609 856 619.50 846.50Q630 837 630 823Q630 807 618.50 795.50Q607 784 592 784Z"  horiz-adv-x="793" vert-adv-y="1000"  />

      
      <glyph glyph-name="unidd" unicode="&#xdd;" d="M332 235L285 0L234 0L282 241L92 700L145 700L316 286L651 700L708 700L332 235M504 875L579 875L409 757L352 757L504 875Z"  horiz-adv-x="625" vert-adv-y="1000"  />

      
      <glyph glyph-name="unide" unicode="&#xde;" d="M437 605Q552 605 615.50 554.50Q679 504 679 411Q679 278 593 206Q507 134 357 134L148 134L121 0L70 0L210 700L261 700L242 605L437 605M358 179Q487 179 557 237.50Q627 296 627 408Q627 481 577 520Q527 559 433 559L233 559L157 179L358 179Z"  horiz-adv-x="715" vert-adv-y="1000"  />

      
      <glyph glyph-name="unidf" unicode="&#xdf;" d="M469 385Q531 372 566 333Q601 294 601 232Q601 161 567 107.50Q533 54 472 25Q411-4 333-4Q304-4 272 1Q240 6 221 14L236 57Q277 40 333 40Q432 40 491.50 91.50Q551 143 551 231Q551 292 507.50 323.50Q464 355 390 355L332 355L341 398Q441 399 503 449Q565 499 565 585Q565 640 529 671Q493 702 425 702Q339 702 281.50 654.50Q224 607 203 505L102 0L52 0L153 503Q178 627 249.50 686.50Q321 746 428 746Q514 746 564 704Q614 662 614 589Q614 519 574 464Q534 409 469 385Z"  horiz-adv-x="661" vert-adv-y="1000"  />

      
      <glyph glyph-name="unie0" unicode="&#xe0;" d="M622 522L518 0L470 0L490 102Q452 52 395.50 24Q339-4 270-4Q168-4 106.50 54.50Q45 113 45 213Q45 302 83 373.50Q121 445 188.50 485.50Q256 526 340 526Q421 526 474 491Q527 456 546 392L572 522L622 522M280 41Q350 41 405.50 75Q461 109 493 169.50Q525 230 525 306Q525 389 476.50 435Q428 481 340 481Q270 481 214.50 446.50Q159 412 127 351.50Q95 291 95 216Q95 133 143.50 87Q192 41 280 41M262 725L334 725L450 607L396 607L262 725Z"  horiz-adv-x="675" vert-adv-y="1000"  />

      
      <glyph glyph-name="unie1" unicode="&#xe1;" d="M622 522L518 0L470 0L490 102Q452 52 395.50 24Q339-4 270-4Q168-4 106.50 54.50Q45 113 45 213Q45 302 83 373.50Q121 445 188.50 485.50Q256 526 340 526Q421 526 474 491Q527 456 546 392L572 522L622 522M280 41Q350 41 405.50 75Q461 109 493 169.50Q525 230 525 306Q525 389 476.50 435Q428 481 340 481Q270 481 214.50 446.50Q159 412 127 351.50Q95 291 95 216Q95 133 143.50 87Q192 41 280 41M486 725L561 725L391 607L334 607L486 725Z"  horiz-adv-x="675" vert-adv-y="1000"  />

      
      <glyph glyph-name="unie2" unicode="&#xe2;" d="M622 522L518 0L470 0L490 102Q452 52 395.50 24Q339-4 270-4Q168-4 106.50 54.50Q45 113 45 213Q45 302 83 373.50Q121 445 188.50 485.50Q256 526 340 526Q421 526 474 491Q527 456 546 392L572 522L622 522M280 41Q350 41 405.50 75Q461 109 493 169.50Q525 230 525 306Q525 389 476.50 435Q428 481 340 481Q270 481 214.50 446.50Q159 412 127 351.50Q95 291 95 216Q95 133 143.50 87Q192 41 280 41M499 607L404 694L291 607L239 607L379 725L434 725L547 607L499 607Z"  horiz-adv-x="675" vert-adv-y="1000"  />

      
      <glyph glyph-name="unie3" unicode="&#xe3;" d="M622 522L518 0L470 0L490 102Q452 52 395.50 24Q339-4 270-4Q168-4 106.50 54.50Q45 113 45 213Q45 302 83 373.50Q121 445 188.50 485.50Q256 526 340 526Q421 526 474 491Q527 456 546 392L572 522L622 522M280 41Q350 41 405.50 75Q461 109 493 169.50Q525 230 525 306Q525 389 476.50 435Q428 481 340 481Q270 481 214.50 446.50Q159 412 127 351.50Q95 291 95 216Q95 133 143.50 87Q192 41 280 41M469 615Q447 615 431.50 624.50Q416 634 395 653Q379 668 366.50 676Q354 684 340 684Q318 684 302.50 666.50Q287 649 282 619L249 619Q256 665 280.50 692Q305 719 341 719Q362 719 377.50 709.50Q393 700 414 681Q430 666 442.50 658Q455 650 469 650Q491 650 507 667.50Q523 685 528 713L561 713Q553 668 529 641.50Q505 615 469 615Z"  horiz-adv-x="675" vert-adv-y="1000"  />

      
      <glyph glyph-name="unie4" unicode="&#xe4;" d="M622 522L518 0L470 0L490 102Q452 52 395.50 24Q339-4 270-4Q168-4 106.50 54.50Q45 113 45 213Q45 302 83 373.50Q121 445 188.50 485.50Q256 526 340 526Q421 526 474 491Q527 456 546 392L572 522L622 522M280 41Q350 41 405.50 75Q461 109 493 169.50Q525 230 525 306Q525 389 476.50 435Q428 481 340 481Q270 481 214.50 446.50Q159 412 127 351.50Q95 291 95 216Q95 133 143.50 87Q192 41 280 41M317 634Q303 634 293 643.50Q283 653 283 667Q283 683 294 694.50Q305 706 321 706Q335 706 345 696.50Q355 687 355 673Q355 657 344 645.50Q333 634 317 634M490 634Q476 634 466 643.50Q456 653 456 667Q456 683 467 694.50Q478 706 493 706Q507 706 517.50 696.50Q528 687 528 673Q528 657 516.50 645.50Q505 634 490 634Z"  horiz-adv-x="675" vert-adv-y="1000"  />

      
      <glyph glyph-name="unie5" unicode="&#xe5;" d="M622 522L518 0L470 0L490 102Q452 52 395.50 24Q339-4 270-4Q168-4 106.50 54.50Q45 113 45 213Q45 302 83 373.50Q121 445 188.50 485.50Q256 526 340 526Q421 526 474 491Q527 456 546 392L572 522L622 522M280 41Q350 41 405.50 75Q461 109 493 169.50Q525 230 525 306Q525 389 476.50 435Q428 481 340 481Q270 481 214.50 446.50Q159 412 127 351.50Q95 291 95 216Q95 133 143.50 87Q192 41 280 41M410 596Q368 596 339.50 624.50Q311 653 311 693Q311 734 339.50 763.50Q368 793 410 793Q452 793 481 763.50Q510 734 510 693Q510 653 481.50 624.50Q453 596 410 596M410 624Q441 624 461 644Q481 664 481 693Q481 723 460.50 743.50Q440 764 410 764Q380 764 360.50 743.50Q341 723 341 693Q341 663 360.50 643.50Q380 624 410 624Z"  horiz-adv-x="675" vert-adv-y="1000"  />

      
      <glyph glyph-name="unie6" unicode="&#xe6;" d="M482 251Q480 229 480 217Q480 131 529.50 86Q579 41 674 41Q729 41 774 59Q819 77 851 111L876 76Q840 38 785.50 17Q731-4 669-4Q584-4 525 32Q466 68 445 138Q412 66 350.50 31Q289-4 214-4Q130-4 82.50 31.50Q35 67 35 129Q35 204 92.50 247Q150 290 254 290L438 290L446 327Q451 354 451 371Q451 425 416.50 453Q382 481 315 481Q264 481 214.50 463.50Q165 446 129 417L110 455Q151 488 207.50 507Q264 526 322 526Q399 526 442.50 496Q486 466 494 410Q533 465 591.50 495.50Q650 526 717 526Q820 526 880 467.50Q940 409 940 308Q940 279 933 251L482 251M715 483Q631 483 569.50 430Q508 377 488 290L891 290Q892 299 892 315Q892 395 843.50 439Q795 483 715 483M218 37Q293 37 348.50 80Q404 123 420 202L430 251L251 251Q172 251 128.50 219.50Q85 188 85 132Q85 86 118.50 61.50Q152 37 218 37Z"  horiz-adv-x="985" vert-adv-y="1000"  />

      
      <glyph glyph-name="unie7" unicode="&#xe7;" d="M280-4Q172-4 108.50 55Q45 114 45 213Q45 302 83.50 373.50Q122 445 190.50 485.50Q259 526 345 526Q415 526 465 501.50Q515 477 543 428L502 403Q455 481 342 481Q271 481 215 446.50Q159 412 127 352Q95 292 95 216Q95 133 144 87Q193 41 284 41Q336 41 381.50 61Q427 81 457 117L492 89Q458 45 401.50 20.50Q345-4 280-4M226-219Q175-219 144-194L163-166Q190-187 229-187Q262-187 281.50-170.50Q301-154 301-127Q301-106 286-94.50Q271-83 243-83L224-83L265 4L298 4L271-55Q304-59 322.50-77.50Q341-96 341-125Q341-166 309-192.50Q277-219 226-219Z"  horiz-adv-x="555" vert-adv-y="1000"  />

      
      <glyph glyph-name="unie8" unicode="&#xe8;" d="M96 250Q94 228 94 217Q94 132 143 86.50Q192 41 287 41Q342 41 388.50 59.50Q435 78 466 111L489 76Q454 38 399.50 17Q345-4 283-4Q172-4 108.50 54Q45 112 45 215Q45 303 82 374Q119 445 184 485.50Q249 526 330 526Q432 526 492 468Q552 410 552 308Q552 284 546 250L96 250M329 483Q244 483 182.50 430Q121 377 102 289L504 289Q505 298 505 315Q505 394 457 438.50Q409 483 329 483M231 725L303 725L419 607L365 607L231 725Z"  horiz-adv-x="598" vert-adv-y="1000"  />

      
      <glyph glyph-name="unie9" unicode="&#xe9;" d="M96 250Q94 228 94 217Q94 132 143 86.50Q192 41 287 41Q342 41 388.50 59.50Q435 78 466 111L489 76Q454 38 399.50 17Q345-4 283-4Q172-4 108.50 54Q45 112 45 215Q45 303 82 374Q119 445 184 485.50Q249 526 330 526Q432 526 492 468Q552 410 552 308Q552 284 546 250L96 250M329 483Q244 483 182.50 430Q121 377 102 289L504 289Q505 298 505 315Q505 394 457 438.50Q409 483 329 483M455 725L530 725L360 607L303 607L455 725Z"  horiz-adv-x="598" vert-adv-y="1000"  />

      
      <glyph glyph-name="uniea" unicode="&#xea;" d="M96 250Q94 228 94 217Q94 132 143 86.50Q192 41 287 41Q342 41 388.50 59.50Q435 78 466 111L489 76Q454 38 399.50 17Q345-4 283-4Q172-4 108.50 54Q45 112 45 215Q45 303 82 374Q119 445 184 485.50Q249 526 330 526Q432 526 492 468Q552 410 552 308Q552 284 546 250L96 250M329 483Q244 483 182.50 430Q121 377 102 289L504 289Q505 298 505 315Q505 394 457 438.50Q409 483 329 483M468 607L373 694L260 607L208 607L348 725L403 725L516 607L468 607Z"  horiz-adv-x="598" vert-adv-y="1000"  />

      
      <glyph glyph-name="unieb" unicode="&#xeb;" d="M96 250Q94 228 94 217Q94 132 143 86.50Q192 41 287 41Q342 41 388.50 59.50Q435 78 466 111L489 76Q454 38 399.50 17Q345-4 283-4Q172-4 108.50 54Q45 112 45 215Q45 303 82 374Q119 445 184 485.50Q249 526 330 526Q432 526 492 468Q552 410 552 308Q552 284 546 250L96 250M329 483Q244 483 182.50 430Q121 377 102 289L504 289Q505 298 505 315Q505 394 457 438.50Q409 483 329 483M286 634Q272 634 262 643.50Q252 653 252 667Q252 683 263 694.50Q274 706 290 706Q304 706 314 696.50Q324 687 324 673Q324 657 313 645.50Q302 634 286 634M459 634Q445 634 435 643.50Q425 653 425 667Q425 683 436 694.50Q447 706 462 706Q476 706 486.50 696.50Q497 687 497 673Q497 657 485.50 645.50Q474 634 459 634Z"  horiz-adv-x="598" vert-adv-y="1000"  />

      
      <glyph glyph-name="uniec" unicode="&#xec;" d="M157 522L207 522L103 0L53 0L157 522M68 725L140 725L256 607L202 607L68 725Z"  horiz-adv-x="261" vert-adv-y="1000"  />

      
      <glyph glyph-name="unied" unicode="&#xed;" d="M157 522L207 522L103 0L53 0L157 522M292 725L367 725L197 607L140 607L292 725Z"  horiz-adv-x="261" vert-adv-y="1000"  />

      
      <glyph glyph-name="uniee" unicode="&#xee;" d="M157 522L207 522L103 0L53 0L157 522M281 607L210 693L120 607L70 607L186 725L239 725L328 607L281 607Z"  horiz-adv-x="261" vert-adv-y="1000"  />

      
      <glyph glyph-name="unief" unicode="&#xef;" d="M157 522L207 522L103 0L53 0L157 522M147 634Q133 634 123.50 643.50Q114 653 114 667Q114 683 125 694.50Q136 706 152 706Q166 706 175 696.50Q184 687 184 673Q184 657 173 645.50Q162 634 147 634M271 634Q258 634 248.50 643.50Q239 653 239 667Q239 684 249.50 695Q260 706 276 706Q290 706 299 696.50Q308 687 308 673Q308 657 297.50 645.50Q287 634 271 634Z"  horiz-adv-x="261" vert-adv-y="1000"  />

      
      <glyph glyph-name="unif0" unicode="&#xf0;" d="M537 638Q604 568 604 448Q604 337 563 232.50Q522 128 443 61.50Q364-5 255-5Q190-5 141 18.50Q92 42 65 85Q38 128 38 184Q38 258 74 315Q110 372 173.50 403Q237 434 317 434Q405 434 461 389Q517 344 523 268Q553 351 553 447Q553 561 488 618L205 505L191 541L448 644Q397 668 326 668Q289 668 251.50 662Q214 656 186 646L183 689Q212 700 251.50 706Q291 712 329 712Q433 712 502 666L604 707L618 670L537 638M260 39Q318 39 371 66Q424 93 457 139.50Q490 186 490 241Q490 310 444 350Q398 390 319 390Q251 390 198.50 364.50Q146 339 117 293.50Q88 248 88 188Q88 118 133.50 78.50Q179 39 260 39Z"  horiz-adv-x="627" vert-adv-y="1000"  />

      
      <glyph glyph-name="unif1" unicode="&#xf1;" d="M402 526Q491 526 539 481.50Q587 437 587 359Q587 332 581 302L521 0L471 0L531 302Q536 325 536 352Q536 414 498.50 447.50Q461 481 389 481Q299 481 239 430.50Q179 380 160 284L103 0L53 0L157 522L206 522L186 423Q223 475 278.50 500.50Q334 526 402 526M483 615Q461 615 445.50 624.50Q430 634 409 653Q393 668 380.50 676Q368 684 354 684Q332 684 316.50 666.50Q301 649 296 619L263 619Q270 665 294.50 692Q319 719 355 719Q376 719 391.50 709.50Q407 700 428 681Q444 666 456.50 658Q469 650 483 650Q505 650 521 667.50Q537 685 542 713L575 713Q567 668 543 641.50Q519 615 483 615Z"  horiz-adv-x="673" vert-adv-y="1000"  />

      
      <glyph glyph-name="unif2" unicode="&#xf2;" d="M276-4Q170-4 107.50 55Q45 114 45 213Q45 302 83.50 373Q122 444 190 485Q258 526 344 526Q450 526 512.50 467.50Q575 409 575 309Q575 220 536.50 148.50Q498 77 430 36.50Q362-4 276-4M280 41Q350 41 405.50 75Q461 109 493 169.50Q525 230 525 306Q525 389 476.50 435Q428 481 340 481Q270 481 214.50 446.50Q159 412 127 351.50Q95 291 95 216Q95 133 143.50 87Q192 41 280 41M247 725L319 725L435 607L381 607L247 725Z"  horiz-adv-x="620" vert-adv-y="1000"  />

      
      <glyph glyph-name="unif3" unicode="&#xf3;" d="M276-4Q170-4 107.50 55Q45 114 45 213Q45 302 83.50 373Q122 444 190 485Q258 526 344 526Q450 526 512.50 467.50Q575 409 575 309Q575 220 536.50 148.50Q498 77 430 36.50Q362-4 276-4M280 41Q350 41 405.50 75Q461 109 493 169.50Q525 230 525 306Q525 389 476.50 435Q428 481 340 481Q270 481 214.50 446.50Q159 412 127 351.50Q95 291 95 216Q95 133 143.50 87Q192 41 280 41M471 725L546 725L376 607L319 607L471 725Z"  horiz-adv-x="620" vert-adv-y="1000"  />

      
      <glyph glyph-name="unif4" unicode="&#xf4;" d="M276-4Q170-4 107.50 55Q45 114 45 213Q45 302 83.50 373Q122 444 190 485Q258 526 344 526Q450 526 512.50 467.50Q575 409 575 309Q575 220 536.50 148.50Q498 77 430 36.50Q362-4 276-4M280 41Q350 41 405.50 75Q461 109 493 169.50Q525 230 525 306Q525 389 476.50 435Q428 481 340 481Q270 481 214.50 446.50Q159 412 127 351.50Q95 291 95 216Q95 133 143.50 87Q192 41 280 41M484 607L389 694L276 607L224 607L364 725L419 725L532 607L484 607Z"  horiz-adv-x="620" vert-adv-y="1000"  />

      
      <glyph glyph-name="unif5" unicode="&#xf5;" d="M276-4Q170-4 107.50 55Q45 114 45 213Q45 302 83.50 373Q122 444 190 485Q258 526 344 526Q450 526 512.50 467.50Q575 409 575 309Q575 220 536.50 148.50Q498 77 430 36.50Q362-4 276-4M280 41Q350 41 405.50 75Q461 109 493 169.50Q525 230 525 306Q525 389 476.50 435Q428 481 340 481Q270 481 214.50 446.50Q159 412 127 351.50Q95 291 95 216Q95 133 143.50 87Q192 41 280 41M454 615Q432 615 416.50 624.50Q401 634 380 653Q364 668 351.50 676Q339 684 325 684Q303 684 287.50 666.50Q272 649 267 619L234 619Q241 665 265.50 692Q290 719 326 719Q347 719 362.50 709.50Q378 700 399 681Q415 666 427.50 658Q440 650 454 650Q476 650 492 667.50Q508 685 513 713L546 713Q538 668 514 641.50Q490 615 454 615Z"  horiz-adv-x="620" vert-adv-y="1000"  />

      
      <glyph glyph-name="unif6" unicode="&#xf6;" d="M276-4Q170-4 107.50 55Q45 114 45 213Q45 302 83.50 373Q122 444 190 485Q258 526 344 526Q450 526 512.50 467.50Q575 409 575 309Q575 220 536.50 148.50Q498 77 430 36.50Q362-4 276-4M280 41Q350 41 405.50 75Q461 109 493 169.50Q525 230 525 306Q525 389 476.50 435Q428 481 340 481Q270 481 214.50 446.50Q159 412 127 351.50Q95 291 95 216Q95 133 143.50 87Q192 41 280 41M302 634Q288 634 278 643.50Q268 653 268 667Q268 683 279 694.50Q290 706 306 706Q320 706 330 696.50Q340 687 340 673Q340 657 329 645.50Q318 634 302 634M475 634Q461 634 451 643.50Q441 653 441 667Q441 683 452 694.50Q463 706 478 706Q492 706 502.50 696.50Q513 687 513 673Q513 657 501.50 645.50Q490 634 475 634Z"  horiz-adv-x="620" vert-adv-y="1000"  />

      
      <glyph glyph-name="unif7" unicode="&#xf7;" d="M338 497Q322 497 311 508Q300 519 300 535Q300 552 312 564Q324 576 340 576Q356 576 367 565.50Q378 555 378 539Q378 522 366 509.50Q354 497 338 497M94 371L519 371L511 328L85 328L94 371M263 124Q248 124 237 135Q226 146 226 162Q226 179 237.50 191Q249 203 266 203Q281 203 292 192Q303 181 303 165Q303 148 291.50 136Q280 124 263 124Z"  horiz-adv-x="569" vert-adv-y="1000"  />

      
      <glyph glyph-name="unif8" unicode="&#xf8;" d="M276-4Q170-4 107.50 55Q45 114 45 213Q45 302 83.50 373Q122 444 190 485Q258 526 344 526Q450 526 512.50 467.50Q575 409 575 309Q575 220 536.50 148.50Q498 77 430 36.50Q362-4 276-4M280 41Q350 41 405.50 75Q461 109 493 169.50Q525 230 525 306Q525 389 476.50 435Q428 481 340 481Q270 481 214.50 446.50Q159 412 127 351.50Q95 291 95 216Q95 133 143.50 87Q192 41 280 41M575 592L615 592L42-70L2-70L575 592Z"  horiz-adv-x="620" vert-adv-y="1000"  />

      
      <glyph glyph-name="unif9" unicode="&#xf9;" d="M616 522L512 0L463 0L483 99Q410-4 269-4Q181-4 133.50 40.50Q86 85 86 163Q86 190 92 220L152 522L202 522L142 220Q137 198 137 170Q137 108 173.50 74.50Q210 41 282 41Q372 41 431 91.50Q490 142 509 238L566 522L616 522M270 725L342 725L458 607L404 607L270 725Z"  horiz-adv-x="669" vert-adv-y="1000"  />

      
      <glyph glyph-name="unifa" unicode="&#xfa;" d="M616 522L512 0L463 0L483 99Q410-4 269-4Q181-4 133.50 40.50Q86 85 86 163Q86 190 92 220L152 522L202 522L142 220Q137 198 137 170Q137 108 173.50 74.50Q210 41 282 41Q372 41 431 91.50Q490 142 509 238L566 522L616 522M494 725L569 725L399 607L342 607L494 725Z"  horiz-adv-x="669" vert-adv-y="1000"  />

      
      <glyph glyph-name="unifb" unicode="&#xfb;" d="M616 522L512 0L463 0L483 99Q410-4 269-4Q181-4 133.50 40.50Q86 85 86 163Q86 190 92 220L152 522L202 522L142 220Q137 198 137 170Q137 108 173.50 74.50Q210 41 282 41Q372 41 431 91.50Q490 142 509 238L566 522L616 522M507 607L412 694L299 607L247 607L387 725L442 725L555 607L507 607Z"  horiz-adv-x="669" vert-adv-y="1000"  />

      
      <glyph glyph-name="unifc" unicode="&#xfc;" d="M616 522L512 0L463 0L483 99Q410-4 269-4Q181-4 133.50 40.50Q86 85 86 163Q86 190 92 220L152 522L202 522L142 220Q137 198 137 170Q137 108 173.50 74.50Q210 41 282 41Q372 41 431 91.50Q490 142 509 238L566 522L616 522M325 634Q311 634 301 643.50Q291 653 291 667Q291 683 302 694.50Q313 706 329 706Q343 706 353 696.50Q363 687 363 673Q363 657 352 645.50Q341 634 325 634M498 634Q484 634 474 643.50Q464 653 464 667Q464 683 475 694.50Q486 706 501 706Q515 706 525.50 696.50Q536 687 536 673Q536 657 524.50 645.50Q513 634 498 634Z"  horiz-adv-x="669" vert-adv-y="1000"  />

      
      <glyph glyph-name="unifd" unicode="&#xfd;" d="M577 522L187-77Q143-145 103.50-171.50Q64-198 10-198Q-26-198-58-186Q-90-174-108-152L-79-115Q-44-154 15-154Q51-154 80.50-134Q110-114 143-64L187 2L55 522L106 522L223 55L525 522L577 522M411 725L486 725L316 607L259 607L411 725Z"  horiz-adv-x="528" vert-adv-y="1000"  />

      
      <glyph glyph-name="unife" unicode="&#xfe;" d="M405 526Q507 526 569 467.50Q631 409 631 309Q631 220 592.50 148.50Q554 77 486.50 36.50Q419-4 335-4Q254-4 201.50 30.50Q149 65 129 130L64-194L14-194L201 742L251 742L188 424Q226 473 281.50 499.50Q337 526 405 526M336 41Q406 41 461.50 75.50Q517 110 548.50 170Q580 230 580 306Q580 389 531.50 435Q483 481 395 481Q325 481 269.50 447Q214 413 182 352.50Q150 292 150 216Q150 133 199 87Q248 41 336 41Z"  horiz-adv-x="675" vert-adv-y="1000"  />

      
      <glyph glyph-name="uniff" unicode="&#xff;" d="M577 522L187-77Q143-145 103.50-171.50Q64-198 10-198Q-26-198-58-186Q-90-174-108-152L-79-115Q-44-154 15-154Q51-154 80.50-134Q110-114 143-64L187 2L55 522L106 522L223 55L525 522L577 522M242 634Q228 634 218 643.50Q208 653 208 667Q208 683 219 694.50Q230 706 246 706Q260 706 270 696.50Q280 687 280 673Q280 657 269 645.50Q258 634 242 634M415 634Q401 634 391 643.50Q381 653 381 667Q381 683 392 694.50Q403 706 418 706Q432 706 442.50 696.50Q453 687 453 673Q453 657 441.50 645.50Q430 634 415 634Z"  horiz-adv-x="528" vert-adv-y="1000"  />

      
      <glyph glyph-name="uni0100" unicode="&#x0100;" d="M546 197L139 197L10 0L-47 0L415 700L466 700L648 0L596 0L546 197M535 240L432 646L167 240L535 240M319 834L613 834L606 798L312 798L319 834Z"  horiz-adv-x="705" vert-adv-y="1000"  />

      
      <glyph glyph-name="uni0101" unicode="&#x0101;" d="M622 522L518 0L470 0L490 102Q452 52 395.50 24Q339-4 270-4Q168-4 106.50 54.50Q45 113 45 213Q45 302 83 373.50Q121 445 188.50 485.50Q256 526 340 526Q421 526 474 491Q527 456 546 392L572 522L622 522M280 41Q350 41 405.50 75Q461 109 493 169.50Q525 230 525 306Q525 389 476.50 435Q428 481 340 481Q270 481 214.50 446.50Q159 412 127 351.50Q95 291 95 216Q95 133 143.50 87Q192 41 280 41M261 684L555 684L548 648L254 648L261 684Z"  horiz-adv-x="675" vert-adv-y="1000"  />

      
      <glyph glyph-name="uni0102" unicode="&#x0102;" d="M546 197L139 197L10 0L-47 0L415 700L466 700L648 0L596 0L546 197M535 240L432 646L167 240L535 240M461 753Q401 753 363 786.50Q325 820 329 875L366 875Q364 834 391 810Q418 786 464 786Q508 786 540.50 810.50Q573 835 579 875L617 875Q609 819 565.50 786Q522 753 461 753Z"  horiz-adv-x="705" vert-adv-y="1000"  />

      
      <glyph glyph-name="uni0103" unicode="&#x0103;" d="M622 522L518 0L470 0L490 102Q452 52 395.50 24Q339-4 270-4Q168-4 106.50 54.50Q45 113 45 213Q45 302 83 373.50Q121 445 188.50 485.50Q256 526 340 526Q421 526 474 491Q527 456 546 392L572 522L622 522M280 41Q350 41 405.50 75Q461 109 493 169.50Q525 230 525 306Q525 389 476.50 435Q428 481 340 481Q270 481 214.50 446.50Q159 412 127 351.50Q95 291 95 216Q95 133 143.50 87Q192 41 280 41M403 603Q343 603 305 636.50Q267 670 271 725L308 725Q306 684 333 660Q360 636 406 636Q450 636 482.50 660.50Q515 685 521 725L559 725Q551 669 507.50 636Q464 603 403 603Z"  horiz-adv-x="675" vert-adv-y="1000"  />

      
      <glyph glyph-name="uni0104" unicode="&#x0104;" d="M546 197L139 197L10 0L-47 0L415 700L466 700L648 0L596 0L546 197M535 240L432 646L167 240L535 240M545-217Q505-217 481-196.50Q457-176 457-141Q457-43 627 24L648 0Q497-58 497-135Q497-159 511.50-171.50Q526-184 552-184Q590-184 621-162L631-192Q592-217 545-217Z"  horiz-adv-x="705" vert-adv-y="1000"  />

      
      <glyph glyph-name="uni0105" unicode="&#x0105;" d="M622 522L518 0L470 0L490 102Q452 52 395.50 24Q339-4 270-4Q168-4 106.50 54.50Q45 113 45 213Q45 302 83 373.50Q121 445 188.50 485.50Q256 526 340 526Q421 526 474 491Q527 456 546 392L572 522L622 522M280 41Q350 41 405.50 75Q461 109 493 169.50Q525 230 525 306Q525 389 476.50 435Q428 481 340 481Q270 481 214.50 446.50Q159 412 127 351.50Q95 291 95 216Q95 133 143.50 87Q192 41 280 41M414-217Q374-217 350-196.50Q326-176 326-141Q326-43 496 24L517 0Q366-58 366-135Q366-159 380.50-171.50Q395-184 421-184Q459-184 490-162L500-192Q461-217 414-217Z"  horiz-adv-x="675" vert-adv-y="1000"  />

      
      <glyph glyph-name="uni0106" unicode="&#x0106;" d="M389-5Q287-5 214.50 31Q142 67 104.50 132Q67 197 67 283Q67 397 119 494Q171 591 267 648Q363 705 491 705Q572 705 635.50 680Q699 655 734 609L698 576Q628 658 487 658Q377 658 293 607.50Q209 557 163.50 472Q118 387 118 285Q118 173 189 107.50Q260 42 393 42Q537 42 624 126L655 91Q609 45 539.50 20Q470-5 389-5M600 875L675 875L505 757L448 757L600 875Z"  horiz-adv-x="716" vert-adv-y="1000"  />

      
      <glyph glyph-name="uni0107" unicode="&#x0107;" d="M280-4Q172-4 108.50 55Q45 114 45 213Q45 302 83.50 373.50Q122 445 190.50 485.50Q259 526 345 526Q415 526 465 501.50Q515 477 543 428L502 403Q455 481 342 481Q271 481 215 446.50Q159 412 127 352Q95 292 95 216Q95 133 144 87Q193 41 284 41Q336 41 381.50 61Q427 81 457 117L492 89Q458 45 401.50 20.50Q345-4 280-4M457 725L532 725L362 607L305 607L457 725Z"  horiz-adv-x="555" vert-adv-y="1000"  />

      
      <glyph glyph-name="uni0108" unicode="&#x0108;" d="M389-5Q287-5 214.50 31Q142 67 104.50 132Q67 197 67 283Q67 397 119 494Q171 591 267 648Q363 705 491 705Q572 705 635.50 680Q699 655 734 609L698 576Q628 658 487 658Q377 658 293 607.50Q209 557 163.50 472Q118 387 118 285Q118 173 189 107.50Q260 42 393 42Q537 42 624 126L655 91Q609 45 539.50 20Q470-5 389-5M613 757L518 844L405 757L353 757L493 875L548 875L661 757L613 757Z"  horiz-adv-x="716" vert-adv-y="1000"  />

      
      <glyph glyph-name="uni0109" unicode="&#x0109;" d="M280-4Q172-4 108.50 55Q45 114 45 213Q45 302 83.50 373.50Q122 445 190.50 485.50Q259 526 345 526Q415 526 465 501.50Q515 477 543 428L502 403Q455 481 342 481Q271 481 215 446.50Q159 412 127 352Q95 292 95 216Q95 133 144 87Q193 41 284 41Q336 41 381.50 61Q427 81 457 117L492 89Q458 45 401.50 20.50Q345-4 280-4M470 607L375 694L262 607L210 607L350 725L405 725L518 607L470 607Z"  horiz-adv-x="555" vert-adv-y="1000"  />

      
      <glyph glyph-name="uni010A" unicode="&#x010A;" d="M389-5Q287-5 214.50 31Q142 67 104.50 132Q67 197 67 283Q67 397 119 494Q171 591 267 648Q363 705 491 705Q572 705 635.50 680Q699 655 734 609L698 576Q628 658 487 658Q377 658 293 607.50Q209 557 163.50 472Q118 387 118 285Q118 173 189 107.50Q260 42 393 42Q537 42 624 126L655 91Q609 45 539.50 20Q470-5 389-5M518 785Q502 785 491.50 795Q481 805 481 820Q481 838 493 850.50Q505 863 522 863Q538 863 548.50 852.50Q559 842 559 827Q559 809 547 797Q535 785 518 785Z"  horiz-adv-x="716" vert-adv-y="1000"  />

      
      <glyph glyph-name="uni010B" unicode="&#x010B;" d="M280-4Q172-4 108.50 55Q45 114 45 213Q45 302 83.50 373.50Q122 445 190.50 485.50Q259 526 345 526Q415 526 465 501.50Q515 477 543 428L502 403Q455 481 342 481Q271 481 215 446.50Q159 412 127 352Q95 292 95 216Q95 133 144 87Q193 41 284 41Q336 41 381.50 61Q427 81 457 117L492 89Q458 45 401.50 20.50Q345-4 280-4M375 635Q359 635 348.50 645Q338 655 338 670Q338 688 350 700.50Q362 713 379 713Q395 713 405.50 702.50Q416 692 416 677Q416 659 404 647Q392 635 375 635Z"  horiz-adv-x="555" vert-adv-y="1000"  />

      
      <glyph glyph-name="uni010C" unicode="&#x010C;" d="M389-5Q287-5 214.50 31Q142 67 104.50 132Q67 197 67 283Q67 397 119 494Q171 591 267 648Q363 705 491 705Q572 705 635.50 680Q699 655 734 609L698 576Q628 658 487 658Q377 658 293 607.50Q209 557 163.50 472Q118 387 118 285Q118 173 189 107.50Q260 42 393 42Q537 42 624 126L655 91Q609 45 539.50 20Q470-5 389-5M683 875L543 757L488 757L375 875L423 875L518 788L630 875L683 875Z"  horiz-adv-x="716" vert-adv-y="1000"  />

      
      <glyph glyph-name="uni010D" unicode="&#x010D;" d="M280-4Q172-4 108.50 55Q45 114 45 213Q45 302 83.50 373.50Q122 445 190.50 485.50Q259 526 345 526Q415 526 465 501.50Q515 477 543 428L502 403Q455 481 342 481Q271 481 215 446.50Q159 412 127 352Q95 292 95 216Q95 133 144 87Q193 41 284 41Q336 41 381.50 61Q427 81 457 117L492 89Q458 45 401.50 20.50Q345-4 280-4M540 725L400 607L345 607L232 725L280 725L375 638L487 725L540 725Z"  horiz-adv-x="555" vert-adv-y="1000"  />

      
      <glyph glyph-name="uni010E" unicode="&#x010E;" d="M210 700L470 700Q573 700 646.50 665Q720 630 758 566Q796 502 796 417Q796 296 742 201Q688 106 589 53Q490 0 360 0L70 0L210 700M363 46Q478 46 564.50 93Q651 140 697.50 224Q744 308 744 415Q744 526 673 590Q602 654 464 654L252 654L130 46L363 46M660 874L520 756L465 756L352 874L400 874L495 787L607 874L660 874Z"  horiz-adv-x="826" vert-adv-y="1000"  />

      
      <glyph glyph-name="uni010F" unicode="&#x010F;" d="M666 742L518 0L470 0L490 102Q452 52 395.50 24Q339-4 270-4Q168-4 106.50 54.50Q45 113 45 213Q45 302 83 373.50Q121 445 188.50 485.50Q256 526 340 526Q421 526 474 491Q527 456 546 391L616 742L666 742M280 41Q350 41 405.50 75Q461 109 493 169.50Q525 230 525 306Q525 389 476.50 435Q428 481 340 481Q270 481 214.50 446.50Q159 412 127 351.50Q95 291 95 216Q95 133 143.50 87Q192 41 280 41M766 767L809 767L766 582L729 582L766 767Z"  horiz-adv-x="675" vert-adv-y="1000"  />

      
      <glyph glyph-name="uni0110" unicode="&#x0110;" d="M213 700L473 700Q576 700 649.50 665Q723 630 761 566Q799 502 799 417Q799 296 745 201Q691 106 592 53Q493 0 363 0L73 0L213 700M366 46Q481 46 567.50 93Q654 140 700.50 224Q747 308 747 415Q747 526 676 590Q605 654 467 654L255 654L133 46L366 46M39 377L415 377L406 334L30 334L39 377Z"  horiz-adv-x="829" vert-adv-y="1000"  />

      
      <glyph glyph-name="uni0111" unicode="&#x0111;" d="M666 742L518 0L470 0L490 102Q452 52 395.50 24Q339-4 270-4Q168-4 106.50 54.50Q45 113 45 213Q45 302 83 373.50Q121 445 188.50 485.50Q256 526 340 526Q421 526 474 491Q527 456 546 391L616 742L666 742M280 41Q350 41 405.50 75Q461 109 493 169.50Q525 230 525 306Q525 389 476.50 435Q428 481 340 481Q270 481 214.50 446.50Q159 412 127 351.50Q95 291 95 216Q95 133 143.50 87Q192 41 280 41M367 651L752 651L745 613L359 613L367 651Z"  horiz-adv-x="675" vert-adv-y="1000"  />

      
      <glyph glyph-name="uni0112" unicode="&#x0112;" d="M252 654L197 378L569 378L560 333L188 333L130 46L562 46L552 0L70 0L210 700L678 700L668 654L252 654M323 834L617 834L610 798L316 798L323 834Z"  horiz-adv-x="669" vert-adv-y="1000"  />

      
      <glyph glyph-name="uni0113" unicode="&#x0113;" d="M96 250Q94 228 94 217Q94 132 143 86.50Q192 41 287 41Q342 41 388.50 59.50Q435 78 466 111L489 76Q454 38 399.50 17Q345-4 283-4Q172-4 108.50 54Q45 112 45 215Q45 303 82 374Q119 445 184 485.50Q249 526 330 526Q432 526 492 468Q552 410 552 308Q552 284 546 250L96 250M329 483Q244 483 182.50 430Q121 377 102 289L504 289Q505 298 505 315Q505 394 457 438.50Q409 483 329 483M230 684L524 684L517 648L223 648L230 684Z"  horiz-adv-x="598" vert-adv-y="1000"  />

      
      <glyph glyph-name="uni0114" unicode="&#x0114;" d="M252 654L197 378L569 378L560 333L188 333L130 46L562 46L552 0L70 0L210 700L678 700L668 654L252 654M465 753Q405 753 367 786.50Q329 820 333 875L370 875Q368 834 395 810Q422 786 468 786Q512 786 544.50 810.50Q577 835 583 875L621 875Q613 819 569.50 786Q526 753 465 753Z"  horiz-adv-x="669" vert-adv-y="1000"  />

      
      <glyph glyph-name="uni0115" unicode="&#x0115;" d="M96 250Q94 228 94 217Q94 132 143 86.50Q192 41 287 41Q342 41 388.50 59.50Q435 78 466 111L489 76Q454 38 399.50 17Q345-4 283-4Q172-4 108.50 54Q45 112 45 215Q45 303 82 374Q119 445 184 485.50Q249 526 330 526Q432 526 492 468Q552 410 552 308Q552 284 546 250L96 250M329 483Q244 483 182.50 430Q121 377 102 289L504 289Q505 298 505 315Q505 394 457 438.50Q409 483 329 483M372 603Q312 603 274 636.50Q236 670 240 725L277 725Q275 684 302 660Q329 636 375 636Q419 636 451.50 660.50Q484 685 490 725L528 725Q520 669 476.50 636Q433 603 372 603Z"  horiz-adv-x="598" vert-adv-y="1000"  />

      
      <glyph glyph-name="uni0116" unicode="&#x0116;" d="M252 654L197 378L569 378L560 333L188 333L130 46L562 46L552 0L70 0L210 700L678 700L668 654L252 654M466 785Q450 785 439.50 795Q429 805 429 820Q429 838 441 850.50Q453 863 470 863Q486 863 496.50 852.50Q507 842 507 827Q507 809 495 797Q483 785 466 785Z"  horiz-adv-x="669" vert-adv-y="1000"  />

      
      <glyph glyph-name="uni0117" unicode="&#x0117;" d="M96 250Q94 228 94 217Q94 132 143 86.50Q192 41 287 41Q342 41 388.50 59.50Q435 78 466 111L489 76Q454 38 399.50 17Q345-4 283-4Q172-4 108.50 54Q45 112 45 215Q45 303 82 374Q119 445 184 485.50Q249 526 330 526Q432 526 492 468Q552 410 552 308Q552 284 546 250L96 250M329 483Q244 483 182.50 430Q121 377 102 289L504 289Q505 298 505 315Q505 394 457 438.50Q409 483 329 483M373 635Q357 635 346.50 645Q336 655 336 670Q336 688 348 700.50Q360 713 377 713Q393 713 403.50 702.50Q414 692 414 677Q414 659 402 647Q390 635 373 635Z"  horiz-adv-x="598" vert-adv-y="1000"  />

      
      <glyph glyph-name="uni0118" unicode="&#x0118;" d="M252 654L197 378L569 378L560 333L188 333L130 46L562 46L552 0L70 0L210 700L678 700L668 654L252 654M449-217Q409-217 385-196.50Q361-176 361-141Q361-43 531 24L552 0Q401-58 401-135Q401-159 415.50-171.50Q430-184 456-184Q494-184 525-162L535-192Q496-217 449-217Z"  horiz-adv-x="669" vert-adv-y="1000"  />

      
      <glyph glyph-name="uni0119" unicode="&#x0119;" d="M97 250Q95 228 95 217Q95 132 144.50 86.50Q194 41 289 41Q344 41 390.50 59.50Q437 78 467 111L491 76Q472 55 448 41Q364-12 327.50-54Q291-96 291-134Q291-158 305-171Q319-184 344-184Q381-184 411-162L420-192Q384-217 337-217Q299-217 276-197Q253-177 253-141Q253-66 349 3Q318-4 284-4Q173-4 109 54.50Q45 113 45 215Q45 303 82.50 374Q120 445 185.50 485.50Q251 526 332 526Q434 526 494 467.50Q554 409 554 308Q554 284 548 250L97 250M329 483Q244 483 183 430Q122 377 103 289L505 289Q506 298 506 315Q506 395 458 439Q410 483 329 483Z"  horiz-adv-x="598" vert-adv-y="1000"  />

      
      <glyph glyph-name="uni011A" unicode="&#x011A;" d="M252 654L197 378L569 378L560 333L188 333L130 46L562 46L552 0L70 0L210 700L678 700L668 654L252 654M631 875L491 757L436 757L323 875L371 875L466 788L578 875L631 875Z"  horiz-adv-x="669" vert-adv-y="1000"  />

      
      <glyph glyph-name="uni011B" unicode="&#x011B;" d="M96 250Q94 228 94 217Q94 132 143 86.50Q192 41 287 41Q342 41 388.50 59.50Q435 78 466 111L489 76Q454 38 399.50 17Q345-4 283-4Q172-4 108.50 54Q45 112 45 215Q45 303 82 374Q119 445 184 485.50Q249 526 330 526Q432 526 492 468Q552 410 552 308Q552 284 546 250L96 250M329 483Q244 483 182.50 430Q121 377 102 289L504 289Q505 298 505 315Q505 394 457 438.50Q409 483 329 483M538 725L398 607L343 607L230 725L278 725L373 638L485 725L538 725Z"  horiz-adv-x="598" vert-adv-y="1000"  />

      
      <glyph glyph-name="uni011C" unicode="&#x011C;" d="M492 705Q576 705 640.50 680Q705 655 743 608L707 576Q637 658 489 658Q379 658 294.50 608Q210 558 164 472.50Q118 387 118 285Q118 173 189.50 107.50Q261 42 395 42Q505 42 591 106L640 347L689 347L636 84Q589 42 524.50 18.50Q460-5 389-5Q288-5 215.50 31Q143 67 105 132Q67 197 67 283Q67 398 119 494.50Q171 591 267.50 648Q364 705 492 705M610 756L515 843L402 756L350 756L490 874L545 874L658 756L610 756Z"  horiz-adv-x="773" vert-adv-y="1000"  />

      
      <glyph glyph-name="uni011D" unicode="&#x011D;" d="M629 522L536 56Q510-77 438-137.50Q366-198 239-198Q167-198 109-176.50Q51-155 13-116L45-79Q77-114 128-133.50Q179-153 243-153Q347-153 406-104Q465-55 485 48L501 126Q462 75 404 47Q346 19 275 19Q170 19 108.50 75Q47 131 47 227Q47 311 85 379.50Q123 448 191 487Q259 526 344 526Q426 526 481 491Q536 456 555 389L581 522L629 522M284 64Q355 64 411 96.50Q467 129 499 186.50Q531 244 531 316Q531 394 481.50 437.50Q432 481 344 481Q273 481 217 448.50Q161 416 129 358.50Q97 301 97 229Q97 151 146.50 107.50Q196 64 284 64M495 607L400 694L287 607L235 607L375 725L430 725L543 607L495 607Z"  horiz-adv-x="682" vert-adv-y="1000"  />

      
      <glyph glyph-name="uni011E" unicode="&#x011E;" d="M492 705Q576 705 640.50 680Q705 655 743 608L707 576Q637 658 489 658Q379 658 294.50 608Q210 558 164 472.50Q118 387 118 285Q118 173 189.50 107.50Q261 42 395 42Q505 42 591 106L640 347L689 347L636 84Q589 42 524.50 18.50Q460-5 389-5Q288-5 215.50 31Q143 67 105 132Q67 197 67 283Q67 398 119 494.50Q171 591 267.50 648Q364 705 492 705M514 752Q454 752 416 785.50Q378 819 382 874L419 874Q417 833 444 809Q471 785 517 785Q561 785 593.50 809.50Q626 834 632 874L670 874Q662 818 618.50 785Q575 752 514 752Z"  horiz-adv-x="773" vert-adv-y="1000"  />

      
      <glyph glyph-name="uni011F" unicode="&#x011F;" d="M629 522L536 56Q510-77 438-137.50Q366-198 239-198Q167-198 109-176.50Q51-155 13-116L45-79Q77-114 128-133.50Q179-153 243-153Q347-153 406-104Q465-55 485 48L501 126Q462 75 404 47Q346 19 275 19Q170 19 108.50 75Q47 131 47 227Q47 311 85 379.50Q123 448 191 487Q259 526 344 526Q426 526 481 491Q536 456 555 389L581 522L629 522M284 64Q355 64 411 96.50Q467 129 499 186.50Q531 244 531 316Q531 394 481.50 437.50Q432 481 344 481Q273 481 217 448.50Q161 416 129 358.50Q97 301 97 229Q97 151 146.50 107.50Q196 64 284 64M399 603Q339 603 301 636.50Q263 670 267 725L304 725Q302 684 329 660Q356 636 402 636Q446 636 478.50 660.50Q511 685 517 725L555 725Q547 669 503.50 636Q460 603 399 603Z"  horiz-adv-x="682" vert-adv-y="1000"  />

      
      <glyph glyph-name="uni0120" unicode="&#x0120;" d="M492 705Q576 705 640.50 680Q705 655 743 608L707 576Q637 658 489 658Q379 658 294.50 608Q210 558 164 472.50Q118 387 118 285Q118 173 189.50 107.50Q261 42 395 42Q505 42 591 106L640 347L689 347L636 84Q589 42 524.50 18.50Q460-5 389-5Q288-5 215.50 31Q143 67 105 132Q67 197 67 283Q67 398 119 494.50Q171 591 267.50 648Q364 705 492 705M515 784Q499 784 488.50 794Q478 804 478 819Q478 837 490 849.50Q502 862 519 862Q535 862 545.50 851.50Q556 841 556 826Q556 808 544 796Q532 784 515 784Z"  horiz-adv-x="773" vert-adv-y="1000"  />

      
      <glyph glyph-name="uni0121" unicode="&#x0121;" d="M629 522L536 56Q510-77 438-137.50Q366-198 239-198Q167-198 109-176.50Q51-155 13-116L45-79Q77-114 128-133.50Q179-153 243-153Q347-153 406-104Q465-55 485 48L501 126Q462 75 404 47Q346 19 275 19Q170 19 108.50 75Q47 131 47 227Q47 311 85 379.50Q123 448 191 487Q259 526 344 526Q426 526 481 491Q536 456 555 389L581 522L629 522M284 64Q355 64 411 96.50Q467 129 499 186.50Q531 244 531 316Q531 394 481.50 437.50Q432 481 344 481Q273 481 217 448.50Q161 416 129 358.50Q97 301 97 229Q97 151 146.50 107.50Q196 64 284 64M400 635Q384 635 373.50 645Q363 655 363 670Q363 688 375 700.50Q387 713 404 713Q420 713 430.50 702.50Q441 692 441 677Q441 659 429 647Q417 635 400 635Z"  horiz-adv-x="682" vert-adv-y="1000"  />

      
      <glyph glyph-name="uni0122" unicode="&#x0122;" d="M492 705Q576 705 640.50 680Q705 655 743 608L707 576Q637 658 489 658Q379 658 294.50 608Q210 558 164 472.50Q118 387 118 285Q118 173 189.50 107.50Q261 42 395 42Q505 42 591 106L640 347L689 347L636 84Q589 42 524.50 18.50Q460-5 389-5Q288-5 215.50 31Q143 67 105 132Q67 197 67 283Q67 398 119 494.50Q171 591 267.50 648Q364 705 492 705M321-112Q338-112 347.50-121.50Q357-131 357-144Q357-154 354-162Q351-170 343-183L301-261L272-261L309-178Q298-175 291.50-166.50Q285-158 285-148Q285-133 295-122.50Q305-112 321-112Z"  horiz-adv-x="773" vert-adv-y="1000"  />

      
      <glyph glyph-name="uni0123" unicode="&#x0123;" d="M629 522L536 56Q510-77 438-137.50Q366-198 239-198Q167-198 109-176.50Q51-155 13-116L45-79Q77-114 128-133.50Q179-153 243-153Q347-153 406-104Q465-55 485 48L501 126Q462 75 404 47Q346 19 275 19Q170 19 108.50 75Q47 131 47 227Q47 311 85 379.50Q123 448 191 487Q259 526 344 526Q426 526 481 491Q536 456 555 389L581 522L629 522M284 64Q355 64 411 96.50Q467 129 499 186.50Q531 244 531 316Q531 394 481.50 437.50Q432 481 344 481Q273 481 217 448.50Q161 416 129 358.50Q97 301 97 229Q97 151 146.50 107.50Q196 64 284 64M410 668Q421 665 427.50 657.50Q434 650 434 639Q434 624 423.50 613.50Q413 603 395 603Q378 603 368 612.50Q358 622 358 635Q358 645 361 653Q364 661 372 674L425 772L457 772L410 668Z"  horiz-adv-x="682" vert-adv-y="1000"  />

      
      <glyph glyph-name="uni0124" unicode="&#x0124;" d="M780 700L640 0L589 0L655 332L187 332L121 0L70 0L210 700L261 700L197 379L665 379L729 700L780 700M612 757L517 844L404 757L352 757L492 875L547 875L660 757L612 757Z"  horiz-adv-x="814" vert-adv-y="1000"  />

      
      <glyph glyph-name="uni0125" unicode="&#x0125;" d="M402 526Q491 526 539 481.50Q587 437 587 359Q587 332 581 302L521 0L471 0L531 302Q536 325 536 352Q536 414 498.50 447.50Q461 481 389 481Q299 481 239 430.50Q179 380 160 284L103 0L53 0L201 742L251 742L188 425Q262 526 402 526M343 799L248 886L135 799L83 799L223 917L278 917L391 799L343 799Z"  horiz-adv-x="673" vert-adv-y="1000"  />

      
      <glyph glyph-name="uni0126" unicode="&#x0126;" d="M783 700L643 0L592 0L658 332L190 332L124 0L73 0L213 700L264 700L200 379L668 379L732 700L783 700M77 565L865 565L857 523L69 523L77 565Z"  horiz-adv-x="820" vert-adv-y="1000"  />

      
      <glyph glyph-name="uni0127" unicode="&#x0127;" d="M402 526Q491 526 539 481.50Q587 437 587 359Q587 332 581 302L521 0L471 0L531 302Q536 325 536 352Q536 414 498.50 447.50Q461 481 389 481Q299 481 239 430.50Q179 380 160 284L103 0L53 0L201 742L251 742L188 425Q262 526 402 526M78 651L463 651L456 613L70 613L78 651Z"  horiz-adv-x="673" vert-adv-y="1000"  />

      
      <glyph glyph-name="uni0128" unicode="&#x0128;" d="M210 700L261 700L121 0L70 0L210 700M322 765Q300 765 284.50 774.50Q269 784 248 803Q232 818 219.50 826Q207 834 193 834Q171 834 155.50 816.50Q140 799 135 769L102 769Q109 815 133.50 842Q158 869 194 869Q215 869 230.50 859.50Q246 850 267 831Q283 816 295.50 808Q308 800 322 800Q344 800 360 817.50Q376 835 381 863L414 863Q406 818 382 791.50Q358 765 322 765Z"  horiz-adv-x="295" vert-adv-y="1000"  />

      
      <glyph glyph-name="uni0129" unicode="&#x0129;" d="M157 522L207 522L103 0L53 0L157 522M262 615Q242 615 228 625.50Q214 636 198 655Q187 669 178 676.50Q169 684 158 684Q140 684 127.50 666.50Q115 649 112 619L79 619Q83 665 105 692Q127 719 160 719Q180 719 194 709Q208 699 223 680Q237 664 244.50 657.50Q252 651 263 651Q281 651 294 668Q307 685 310 713L343 713Q338 668 316.50 641.50Q295 615 262 615Z"  horiz-adv-x="261" vert-adv-y="1000"  />

      
      <glyph glyph-name="uni012A" unicode="&#x012A;" d="M210 700L261 700L121 0L70 0L210 700M142 835L381 835L374 799L135 799L142 835Z"  horiz-adv-x="295" vert-adv-y="1000"  />

      
      <glyph glyph-name="uni012B" unicode="&#x012B;" d="M157 522L207 522L103 0L53 0L157 522M95 684L334 684L327 648L88 648L95 684Z"  horiz-adv-x="261" vert-adv-y="1000"  />

      
      <glyph glyph-name="uni012C" unicode="&#x012C;" d="M210 700L261 700L121 0L70 0L210 700M256 753Q196 753 158 786.50Q120 820 124 875L161 875Q159 834 186 810Q213 786 259 786Q303 786 335.50 810.50Q368 835 374 875L412 875Q404 819 360.50 786Q317 753 256 753Z"  horiz-adv-x="295" vert-adv-y="1000"  />

      
      <glyph glyph-name="uni012D" unicode="&#x012D;" d="M157 522L207 522L103 0L53 0L157 522M211 603Q161 603 131.50 631Q102 659 102 706Q102 719 103 725L138 725Q137 720 137 710Q137 675 156.50 655.50Q176 636 211 636Q293 636 304 725L341 725Q334 667 300.50 635Q267 603 211 603Z"  horiz-adv-x="261" vert-adv-y="1000"  />

      
      <glyph glyph-name="uni012E" unicode="&#x012E;" d="M210 700L261 700L121 0L70 0L210 700M66-217Q34-217 15.50-198Q-3-179-3-147Q-3-101 26.50-57.50Q56-14 104 21L121 0Q80-35 58.50-71.50Q37-108 37-142Q37-163 47-173.50Q57-184 75-184Q95-184 114-168L123-196Q102-217 66-217Z"  horiz-adv-x="295" vert-adv-y="1000"  />

      
      <glyph glyph-name="uni012F" unicode="&#x012F;" d="M157 522L207 522L103 0L53 0L157 522M212 649Q196 649 185 660Q174 671 174 686Q174 704 186.50 717Q199 730 218 730Q234 730 245.50 719Q257 708 257 693Q257 674 244 661.50Q231 649 212 649M48-217Q16-217-2.50-198Q-21-179-21-147Q-21-101 8.50-57.50Q38-14 86 21L103 0Q62-35 40.50-71.50Q19-108 19-142Q19-163 29-173.50Q39-184 57-184Q77-184 96-168L105-196Q84-217 48-217Z"  horiz-adv-x="261" vert-adv-y="1000"  />

      
      <glyph glyph-name="uni0130" unicode="&#x0130;" d="M210 700L261 700L121 0L70 0L210 700M257 785Q241 785 230.50 795Q220 805 220 820Q220 838 232 850.50Q244 863 261 863Q277 863 287.50 852.50Q298 842 298 827Q298 809 286 797Q274 785 257 785Z"  horiz-adv-x="295" vert-adv-y="1000"  />

      
      <glyph glyph-name="uni0131" unicode="&#x0131;" d="M157 522L207 522L103 0L53 0L157 522Z"  horiz-adv-x="261" vert-adv-y="1000"  />

      
      <glyph glyph-name="uni0132" unicode="&#x0132;" d="M291-5Q223-5 166 13Q109 31 68 62L96 104Q135 74 185.50 58Q236 42 294 42Q403 42 466.50 103.50Q530 165 556 297L636 700L688 700L606 292Q576 141 498.50 68Q421-5 291-5M204 700L255 700L174 297L123 297L204 700Z"  horiz-adv-x="716" vert-adv-y="1000"  />

      
      <glyph glyph-name="uni0133" unicode="&#x0133;" d="M157 522L207 522L103 0L53 0L157 522M213 649Q197 649 186 660Q175 671 175 686Q175 704 187.50 717Q200 730 219 730Q235 730 246.50 719Q258 708 258 693Q258 674 245 661.50Q232 649 213 649M195-198Q163-198 135.50-189Q108-180 89-164L115-126Q147-155 197-155Q243-155 270.50-129Q298-103 309-48L423 522L473 522L358-52Q344-126 303.50-162Q263-198 195-198M478 649Q462 649 451 660Q440 671 440 686Q440 704 452.50 717Q465 730 484 730Q500 730 511.50 719Q523 708 523 693Q523 674 510 661.50Q497 649 478 649Z"  horiz-adv-x="527" vert-adv-y="1000"  />

      
      <glyph glyph-name="uni0134" unicode="&#x0134;" d="M147-5Q83-5 35.50 22Q-12 49-34 95L4 127Q23 87 61 64Q99 41 150 41Q216 41 255.50 78.50Q295 116 313 204L403 654L145 654L154 700L463 700L363 201Q341 90 288.50 42.50Q236-5 147-5M425 757L330 844L217 757L165 757L305 875L360 875L473 757L425 757Z"  horiz-adv-x="491" vert-adv-y="1000"  />

      
      <glyph glyph-name="uni0135" unicode="&#x0135;" d="M-66-198Q-98-198-125.50-189Q-153-180-172-164L-146-126Q-114-155-64-155Q-18-155 9.50-129Q37-103 48-48L162 522L212 522L97-52Q83-126 42.50-162Q2-198-66-198M286 607L215 693L125 607L75 607L191 725L244 725L333 607L286 607Z"  horiz-adv-x="266" vert-adv-y="1000"  />

      
      <glyph glyph-name="uni0136" unicode="&#x0136;" d="M383 376L642 0L583 0L346 345L158 184L121 0L70 0L210 700L261 700L172 255L693 700L762 700L383 376M290-112Q307-112 316.50-121.50Q326-131 326-144Q326-154 323-162Q320-170 312-183L270-261L241-261L278-178Q267-175 260.50-166.50Q254-158 254-148Q254-133 264-122.50Q274-112 290-112Z"  horiz-adv-x="703" vert-adv-y="1000"  />

      
      <glyph glyph-name="uni0137" unicode="&#x0137;" d="M335 309L523 0L465 0L296 279L134 154L103 0L53 0L201 742L251 742L147 219L536 522L609 522L335 309M227-112Q244-112 253.50-121.50Q263-131 263-144Q263-154 260-162Q257-170 249-183L207-261L178-261L215-178Q204-175 197.50-166.50Q191-158 191-148Q191-133 201-122.50Q211-112 227-112Z"  horiz-adv-x="576" vert-adv-y="1000"  />

      
      <glyph glyph-name="uni0138" unicode="&#x0138;" d="M335 309L523 0L465 0L296 279L134 154L103 0L53 0L157 522L207 522L147 219L536 522L609 522L335 309Z"  horiz-adv-x="576" vert-adv-y="1000"  />

      
      <glyph glyph-name="uni0139" unicode="&#x0139;" d="M210 700L261 700L130 46L533 46L523 0L70 0L210 700M340 875L415 875L245 757L188 757L340 875Z"  horiz-adv-x="585" vert-adv-y="1000"  />

      
      <glyph glyph-name="uni013A" unicode="&#x013A;" d="M201 742L251 742L103 0L53 0L201 742M330 917L405 917L235 799L178 799L330 917Z"  horiz-adv-x="261" vert-adv-y="1000"  />

      
      <glyph glyph-name="uni013B" unicode="&#x013B;" d="M210 700L261 700L130 46L533 46L523 0L70 0L210 700M277-112Q294-112 303.50-121.50Q313-131 313-144Q313-154 310-162Q307-170 299-183L257-261L228-261L265-178Q254-175 247.50-166.50Q241-158 241-148Q241-133 251-122.50Q261-112 277-112Z"  horiz-adv-x="585" vert-adv-y="1000"  />

      
      <glyph glyph-name="uni013C" unicode="&#x013C;" d="M201 742L251 742L103 0L53 0L201 742M48-112Q65-112 74.50-121.50Q84-131 84-144Q84-154 81-162Q78-170 70-183L28-261L-1-261L36-178Q25-175 18.50-166.50Q12-158 12-148Q12-133 22-122.50Q32-112 48-112Z"  horiz-adv-x="261" vert-adv-y="1000"  />

      
      </font>
</defs>
</svg>
